<svg xmlns="http://www.w3.org/2000/svg" viewBox="0 0 750 500"><g id="freepik--background-simple--inject-25"><path d="M690,234.84c-15.34-48.3-53.33-89.5-101.23-106s-104.64-6.75-142.49,26.94c-28.21,25.12-47.44,63-83.22,75.11-28,9.51-58.4.38-87.71-3.64-45.26-6.21-93.58.84-131.3,26.62S81.41,325.92,87.8,371.16,134,454,179.66,451.38l404.78-.91c39.18-3.32,71.35-33.91,90.07-68.49C698.63,337.42,705.36,283.13,690,234.84Z" style="fill:#ebebeb"></path></g><g id="freepik--Desk--inject-25"><path d="M712,451.38c0,.14-150.87.26-336.94.26s-337-.12-337-.26,150.84-.26,337-.26S712,451.24,712,451.38Z" style="fill:#263238"></path></g></svg>