<svg width="140" height="157" viewBox="0 0 140 157" fill="none" xmlns="http://www.w3.org/2000/svg">
<path d="M45.3701 91.53L39.8101 115.3L0.610107 90.3L4.08008 70.2L28.4501 50.5C30.3104 49.181 31.9079 47.5259 33.1601 45.62C34.1188 44.0136 34.7953 42.2548 35.1601 40.42C35.6457 38.3241 35.5698 36.1372 34.9401 34.08C34.3359 32.1965 33.1221 30.5676 31.4901 29.45C30.7881 28.9135 29.9666 28.5551 29.0958 28.4053C28.2251 28.2555 27.331 28.3189 26.4901 28.59C24.7767 29.15 23.2801 30.58 22.0001 32.88L10.6401 11.23C13.8601 5.70333 17.8134 2.34665 22.5001 1.15999C27.1867 -0.026679 32.3801 1.44336 38.0801 5.57002C42.447 8.7067 46.1088 12.7228 48.8301 17.36C51.6612 22.1615 53.5358 27.4658 54.3501 32.98C55.1956 38.6127 54.9614 44.3548 53.6601 49.9C52.6835 54.4456 50.9601 58.798 48.5601 62.78C46.3401 66.36 42.8601 69.78 38.1501 73.06L28.3301 80.33L45.3701 91.53Z" fill="#FC5166"/>
<path d="M54.7199 120.74C52.3132 114.9 51.0132 107.827 50.8199 99.52C50.6796 90.3272 51.7453 81.1557 53.9898 72.24C56.3365 62.42 59.3932 54.68 63.1599 49.02C66.9266 43.36 71.1532 40.0266 75.8399 39.02C80.5199 38.02 85.2999 39.24 90.1599 42.7C95.1961 46.3858 99.1084 51.3991 101.46 57.18C104.21 63.9271 105.551 71.1655 105.4 78.45C105.229 87.1456 103.722 95.7631 100.93 104C98.0098 113.047 94.5232 120.21 90.4699 125.49C86.4165 130.77 82.1999 134.12 77.8199 135.54C73.4299 136.94 69.0799 136.29 64.7599 133.54C60.4399 130.79 57.0799 126.54 54.7199 120.74ZM83.3799 92.12C87.5932 77.6267 87.6666 68.96 83.5999 66.12C79.5332 63.28 75.5132 69.28 71.5399 84.12C67.5399 98.9133 67.4665 107.58 71.3199 110.12C75.1732 112.66 79.1932 106.66 83.3799 92.12Z" fill="#FC5166"/>
<path d="M118.38 65.16L139.5 80.16L117.94 127.16L104.79 118.38L118.38 65.16ZM94.81 146.77C94.0003 142.872 94.2525 138.828 95.5401 135.06C96.8734 131.06 98.8734 128.32 101.54 126.84C104.21 125.39 106.95 125.61 109.76 127.47C111.184 128.441 112.402 129.684 113.344 131.127C114.287 132.57 114.934 134.186 115.25 135.88C116.083 139.685 115.773 143.651 114.36 147.28C112.947 151.08 110.883 153.747 108.17 155.28C106.953 156.053 105.534 156.446 104.093 156.409C102.652 156.371 101.255 155.905 100.08 155.07C97.3667 153.383 95.61 150.617 94.81 146.77V146.77Z" fill="#FC5166"/>
</svg>
