<svg width="573" height="404" viewBox="0 0 573 404" fill="none" xmlns="http://www.w3.org/2000/svg">
<path d="M7.99987 9H213.228C230.401 9 244.321 22.9958 244.321 40.2611V175.604C244.321 192.87 230.401 206.865 213.228 206.865H73.389L42.4153 179.185H7.99987" stroke="#ffffff" stroke-width="15" stroke-miterlimit="10" stroke-linecap="round" stroke-linejoin="round"/>
<path d="M301.456 159.932L346.928 144.705C370.899 136.678 383.86 110.843 375.876 87" stroke="#ffffff" stroke-width="15" stroke-miterlimit="10" stroke-linecap="round" stroke-linejoin="round"/>
<path d="M275.619 123.121L296.839 116.016C323.931 106.944 338.579 77.745 329.556 50.7989L326.274 41" stroke="#ffffff" stroke-width="15" stroke-miterlimit="10" stroke-linecap="round" stroke-linejoin="round"/>
<path d="M218 31V33.1797" stroke="#ffffff" stroke-width="15" stroke-miterlimit="10" stroke-linecap="round" stroke-linejoin="round"/>
<path d="M218 63.6953V65.875" stroke="#ffffff" stroke-width="15" stroke-miterlimit="10" stroke-linecap="round" stroke-linejoin="round"/>
<path d="M287 32.1797V30" stroke="#ffffff" stroke-width="15" stroke-miterlimit="10" stroke-linecap="round" stroke-linejoin="round"/>
<path d="M353 394.829L429.559 310.389C429.559 310.389 389.757 241.966 390.042 221.951C389.679 219.815 389.816 217.642 390.497 215.525L415.036 139.225C418.215 129.34 431.724 122.703 445.719 124.642C460.412 126.676 469.718 136.948 466.412 147.238L457.302 175.563L447.111 206.822C445.23 212.609 450.286 218.398 458.416 219.757C466.545 221.116 474.665 217.528 476.552 211.743L505.326 120.833C505.59 120.026 505.644 119.217 505.647 118.422C505.647 118.42 505.647 118.418 505.647 118.415C505.647 118.415 505.767 116.692 505.092 115.236L459.851 29.4706C455.571 21.193 461.737 12.0044 473.602 9.24839C484.904 6.62265 497.091 11.137 501.207 19.0946L559.949 107.183C561.737 110.32 562.687 113.66 562.748 117.043C563.152 139.2 564.68 226.024 563.962 231.561C563.116 238.019 539.308 305.126 539.308 305.126L490.147 395.374" stroke="#ffffff" stroke-width="15" stroke-miterlimit="10" stroke-linecap="round" stroke-linejoin="round"/>
</svg>
