<svg width="225" height="225" viewBox="0 0 255 255" fill="none" xmlns="http://www.w3.org/2000/svg">
<g clip-path="url(#clip0)">
<path opacity="0.2" d="M183.598 149.045L96.2721 204.228L0.422791 139.366L87.7402 84.1876L183.598 149.045Z" fill="black" fill-opacity="0.15" stroke="black" stroke-opacity="0.15"/>
<path d="M134.307 180.126L28.8714 108.77L35.8723 104.382L141.304 175.742L134.307 180.126Z" fill="#455A64" stroke="black" stroke-opacity="0.15"/>
<path d="M6.96527 59.8454L101.141 0.278412L206.573 71.639L112.397 131.206L6.96527 59.8454Z" fill="#FFEBEB" stroke="black" stroke-opacity="0.15"/>
<g opacity="0.7">
<path opacity="0.7" d="M6.96527 59.3924L101.141 0.731506L206.573 72.0921L112.397 130.748L6.96527 59.3924Z" fill="white" stroke="black" stroke-opacity="0.15"/>
</g>
<path d="M111.484 210.575L6.05286 139.215L6.80947 59.8455L112.245 131.206L111.484 210.575Z" fill="#FFEBEB" stroke="black" stroke-opacity="0.15"/>
<g opacity="0.6">
<path opacity="0.6" d="M111.484 210.575L6.05286 139.064L6.80947 59.8455L112.397 131.508L111.484 210.575Z" fill="white" stroke="black" stroke-opacity="0.15"/>
</g>
<path d="M111.484 210.575L205.683 151.008L206.444 71.639L112.246 131.206L111.484 210.575Z" fill="#FFEBEB" stroke="black" stroke-opacity="0.15"/>
<g opacity="0.4">
<path opacity="0.4" d="M111.484 210.103L205.683 151.159L206.444 71.941L112.246 130.899L111.484 210.103Z" fill="white" stroke="black" stroke-opacity="0.15"/>
</g>
<path d="M65.2333 62.2051L103.878 34.9889L147.237 67.4954L108.596 94.7069L65.2333 62.2051Z" fill="#FFEBEB" stroke="black" stroke-opacity="0.15"/>
<path opacity="0.7" d="M65.3845 62.1107L104.03 35.0502L147.237 67.5804L108.596 94.6409L65.3845 62.1107Z" fill="white" stroke="black" stroke-opacity="0.15"/>
<path d="M65.2333 62.2051L103.878 34.9889L147.237 67.4954L108.596 94.7069L65.2333 62.2051Z" fill="#FFEBEB" stroke="black" stroke-opacity="0.15"/>
<path opacity="0.7" d="M65.3845 62.1107L104.03 35.0502L147.237 67.5804L108.596 94.6409L65.3845 62.1107Z" fill="white" stroke="black" stroke-opacity="0.15"/>
<path opacity="0.25" d="M183.598 149.045L96.2721 204.228L0.422791 139.366L87.7402 84.1876L183.598 149.045Z" fill="black"/>
<path d="M6.96527 59.8454L101.141 0.278412L206.573 71.639L112.397 131.206L6.96527 59.8454Z" fill="#FFEBEB" stroke="black" stroke-opacity="0.15"/>
<g opacity="0.7">
<path opacity="0.7" d="M6.96527 59.3877L101.141 0.731506L206.573 72.0874L112.401 130.899L6.96527 59.3877Z" fill="white"/>
<path opacity="0.15" d="M6.96527 59.3877L101.141 0.731506L206.573 72.0874L112.401 130.899L6.96527 59.3877Z" stroke="black"/>
</g>
<path d="M111.484 210.575L6.05286 139.215L6.80947 59.8455L112.245 131.206L111.484 210.575Z" fill="#FFEBEB" stroke="black" stroke-opacity="0.15"/>
<g opacity="0.6">
<path opacity="0.6" d="M111.484 210.575L6.05286 139.064L6.80947 59.8455L112.397 131.508L111.484 210.575Z" fill="white" stroke="black" stroke-opacity="0.15"/>
</g>
<path d="M111.484 210.575L205.683 151.008L206.444 71.639L112.246 131.206L111.484 210.575Z" fill="#FFEBEB" stroke="black" stroke-opacity="0.15"/>
<g opacity="0.88">
<path opacity="0.4" d="M111.484 210.103L205.683 151.159L206.444 71.941L112.246 130.899L111.484 210.103Z" fill="white" stroke="black" stroke-opacity="0.15"/>
</g>
<path d="M65.2333 62.2051L103.878 34.9889L147.237 67.4954L108.596 94.7069L65.2333 62.2051Z" fill="#FFEBEB" stroke="black" stroke-opacity="0.15"/>
<path opacity="0.7" d="M65.3845 62.1107L104.03 35.0502L147.237 67.5804L108.596 94.6409L65.3845 62.1107Z" fill="white" stroke="black" stroke-opacity="0.15"/>
<path d="M65.2333 62.2051L103.878 34.9889L147.237 67.4954L108.596 94.7069L65.2333 62.2051Z" fill="#FFEBEB" stroke="black" stroke-opacity="0.15"/>
<path d="M21.5545 80.8605L105.231 137.426C106.036 137.959 106.706 138.692 107.183 139.561C107.659 140.43 107.929 141.41 107.968 142.414L106.602 187.621C106.335 190.971 103.442 193.515 100.06 193.364C98.868 193.386 97.6991 193.016 96.7128 192.307L13.4855 138.035C12.6639 137.515 11.981 136.781 11.5012 135.904C11.0215 135.026 10.7608 134.033 10.7439 133.018L11.8076 85.5468C12.0746 82.1914 14.9676 79.6524 18.3501 79.8034C19.4918 79.8219 20.6044 80.189 21.5545 80.8605V80.8605Z" fill="#37474F"/>
</g>
<defs>
<clipPath id="clip0">
<rect width="207" height="211" fill="white"/>
</clipPath>
</defs>
</svg>
