<svg xmlns="http://www.w3.org/2000/svg" xmlns:xlink="http://www.w3.org/1999/xlink" viewBox="0 0 500 500"><defs><clipPath id="freepik--clip-path--inject-15"><path d="M297.87,245.36S289.36,251,276,259.26s-11.92,7.37-13.33,16.17-6.24,38.85-6.24,47.93,6.24,30.35,4.25,40.28-4,23.54-1.7,27.51,23.82,14.18,42.54,14.18,47.94-4.82,52.19-10.21,4-9.36,4.26-16.73,2.55-16.74,9.07-42.27,16.74-78,12.2-85.37-18.72-6.24-28.08-6.24-17.3-1.13-28.36-2.84S297.87,245.36,297.87,245.36Z" style="fill:#92E3A9;stroke:#263238;stroke-linecap:round;stroke-linejoin:round"></path></clipPath><clipPath id="freepik--clip-path-2--inject-15"><path d="M289.36,231.46A62.7,62.7,0,0,1,293.9,255c-.29,12.48-.86,25.25,0,25.25s23.54-41.7,23.54-45.67-4-20.7-2.84-29.5,4.54-10.49,2.84-17.3-10.78-4.25-16.74,6S288.79,221.54,289.36,231.46Z" style="fill:#fff;stroke:#263238;stroke-linecap:round;stroke-linejoin:round"></path></clipPath><clipPath id="freepik--clip-path-3--inject-15"><path d="M341,264.93s-22.12,50.77-25.53,56.73-6.81,11.06-9.07,13a63.05,63.05,0,0,1-7.1,4.82s5.11,30.06,6,30.06,6.52-1.13,23-11.06S373.6,286.2,373.6,286.2" style="fill:#92E3A9;stroke:#263238;stroke-linecap:round;stroke-linejoin:round"></path></clipPath><clipPath id="freepik--clip-path-4--inject-15"><path d="M288.22,341.51s-61,12.77-65.8,13.05-18.72-1.13-25-2.84-7.09,1.14-9.36,2.56-12.76,6-14.18,9.07-2.56,6.24-3.12,7.09-8.23,4-11.63,5.39-4,3.41-1.7,4.26a11.67,11.67,0,0,0,3.68.85,13.16,13.16,0,0,0,6.53,2.55,56.79,56.79,0,0,0,6.8.57s8.23,4.54,14.75,2.55,15.6-5.1,19.57-7.94,8.8-6.24,9.65-6.24,31.77.57,51.34-.28S297,370.44,297,370.44s-1.71-21.55-3.12-26.94S288.22,341.51,288.22,341.51Z" style="fill:#fff;stroke:#263238;stroke-linecap:round;stroke-linejoin:round"></path></clipPath><clipPath id="freepik--clip-path-5--inject-15"><path d="M265.39,160.05s-14.18,13.62-13.62,21,6,21.84,5.68,25-2.84,4,1.13,11.06,19.29,25,28.08,23.26,25.24-15,26.38-21a78.55,78.55,0,0,0,.85-14.18s4.82-2.55,5.95-7.37.57-6.53.57-6.53-15.6,2.56-24.39-3.4-17.87-15.6-22.69-21S265.39,160.05,265.39,160.05Z" style="fill:#fff;stroke:#263238;stroke-linecap:round;stroke-linejoin:round"></path></clipPath></defs><g id="freepik--background-simple--inject-15"><path d="M165.31,113.34s-60.68,35-88.69,85S55.39,309.84,96.68,353.37s113.68,33,176.66,58.33,129.83,15.2,154.37-48.12-20.52-83.64-32.95-154.39S309.11,38.19,165.31,113.34Z" style="fill:#92E3A9"></path><path d="M165.31,113.34s-60.68,35-88.69,85S55.39,309.84,96.68,353.37s113.68,33,176.66,58.33,129.83,15.2,154.37-48.12-20.52-83.64-32.95-154.39S309.11,38.19,165.31,113.34Z" style="fill:#fff;opacity:0.7000000000000001"></path></g></svg>