<svg width="660" height="508" viewBox="0 0 660 508" fill="none" xmlns="http://www.w3.org/2000/svg">
<path d="M185.785 40.1072C185.785 40.1072 79.0509 92.7276 29.7824 167.9C-19.4861 243.072 -7.56039 335.533 65.0672 400.978C137.695 466.423 265.026 450.592 375.805 488.674C486.585 526.756 604.172 511.526 647.337 416.328C690.501 321.13 611.243 290.58 589.379 184.212C567.515 77.8436 438.724 -72.8763 185.785 40.1072Z" fill="white" fill-opacity="0.4"/>
<path opacity="0.7" d="M185.785 40.1072C185.785 40.1072 79.0509 92.7276 29.7824 167.9C-19.4861 243.072 -7.56039 335.533 65.0672 400.978C137.695 466.423 265.026 450.592 375.805 488.674C486.585 526.756 604.172 511.526 647.337 416.328C690.501 321.13 611.243 290.58 589.379 184.212C567.515 77.8436 438.724 -72.8763 185.785 40.1072Z" fill="white" fill-opacity="0.4"/>
</svg>
