<svg id="Layer_1" data-name="Layer 1" xmlns="http://www.w3.org/2000/svg" xmlns:xlink="http://www.w3.org/1999/xlink" viewBox="0 0 765 601"><defs><style>.cls-1{opacity:0.5;}.cls-1,.cls-12,.cls-18,.cls-22,.cls-24,.cls-26,.cls-28,.cls-31,.cls-32{isolation:isolate;}.cls-2{fill:#4b496e;}.cls-3{fill:#030628;}.cls-4{fill:#a4a2b2;}.cls-5{fill:#4a466d;}.cls-6{fill:#ffbe9d;}.cls-7{fill:#eb996e;}.cls-8{fill:#263238;}.cls-19,.cls-9{fill:#455a64;}.cls-10,.cls-32{fill:#fc5166;}.cls-11,.cls-12{opacity:0.3;}.cls-13{fill:#fafafa;}.cls-14{fill:#c5e9e1;}.cls-15{fill:#ebebeb;}.cls-16{fill:#7db3fb;}.cls-17{fill:#57577b;}.cls-18{fill-opacity:0.15;opacity:0.2;}.cls-18,.cls-19,.cls-20,.cls-22,.cls-24,.cls-26,.cls-28{stroke:#000;}.cls-18,.cls-19,.cls-20,.cls-22,.cls-24,.cls-26{stroke-opacity:0.15;}.cls-20{fill:#ffebeb;}.cls-21,.cls-22{opacity:0.7;}.cls-22,.cls-24,.cls-26,.cls-27{fill:#fff;}.cls-23,.cls-24{opacity:0.6;}.cls-25,.cls-26{opacity:0.4;}.cls-28{fill:none;opacity:0.15;}.cls-29{opacity:0.88;}.cls-30{fill:#37474f;}.cls-31{opacity:0.75;}.cls-32{font-size:36px;font-family:Montserrat-Bold, Montserrat;font-weight:700;}</style></defs><title>Man</title><image class="cls-1" width="293" height="170" transform="translate(312 431)" xlink:href="../../Desktop/New%20folder%20(2)/F5F85C29.png"/><path class="cls-2" d="M1162.91,736.84c1.6-3.6.5-19.4-1.4-22.7a25.57,25.57,0,0,0-7.9-7.8c-23-16.6-42.2-20.1-69.2-23.5a401.15,401.15,0,0,0-82.7-2.1c-30.3,2.5-60.8-.6-88,14.8a27.43,27.43,0,0,0-10.7,10.9c-2.1,4-1.3,12.7,1.1,21.2,4.2,15.5,6.2,36.3,40.1,47.4,38.1,12.5,35.5,42.9,35.5,42.9l159.1-1.6,2.1-15a127,127,0,0,1,15.6-45.2,58.85,58.85,0,0,0,7.1-21.4" transform="translate(-577.81 -239.54)"/><path class="cls-3" d="M907.61,741.14c0,.2.1.3.1.4a7.87,7.87,0,0,0,.4,1.2,40.58,40.58,0,0,0,1.8,4.5,67.48,67.48,0,0,0,3.6,6.5,64.89,64.89,0,0,0,5.8,7.7,34.55,34.55,0,0,0,9,6.8c3.5,1.9,7.3,3.6,11.3,5.3a206.56,206.56,0,0,0,77.4,16.6,148.68,148.68,0,0,0,21.1-.9h-1.5l-4.2.2c-1.8.1-4,.2-6.6.2H1017a212.58,212.58,0,0,1-77.3-16.7,120.16,120.16,0,0,1-11.3-5.2,37.41,37.41,0,0,1-8.9-6.6,48.63,48.63,0,0,1-5.8-7.6c-1.3-2.1-2.5-4.2-3.7-6.4-.7-1.4-1.3-2.9-1.9-4.3-.2-.5-.3-1-.4-1.2A.74.74,0,0,0,907.61,741.14Z" transform="translate(-577.81 -239.54)"/><path class="cls-3" d="M999.41,794.14c0,.1,1.4.7,3.4,1.9a36.16,36.16,0,0,1,7.6,6,47.16,47.16,0,0,1,6.1,7.9c1.3,2.2,2,3.8,2.1,3.7a3.54,3.54,0,0,0-.4-1.1,15.19,15.19,0,0,0-1.4-2.9,34,34,0,0,0-13.9-14.2,13.31,13.31,0,0,0-2.7-1.2C1000,794.24,999.71,794.14,999.41,794.14Z" transform="translate(-577.81 -239.54)"/><ellipse class="cls-4" cx="447.3" cy="480.4" rx="107.3" ry="21.1"/><path class="cls-3" d="M917.71,719.94a6.39,6.39,0,0,0,.2-1.3,7.12,7.12,0,0,1,2.1-3c2.4-2.1,6.4-4.2,11.8-6,10.8-3.7,27-6.7,47.1-8.5a522.86,522.86,0,0,1,70.8-1.4,368.87,368.87,0,0,1,41.7,4,207.58,207.58,0,0,1,21.8,4.5,79.57,79.57,0,0,1,10.7,3.8,25,25,0,0,1,5,2.9,10.45,10.45,0,0,1,2.1,2.1,4.35,4.35,0,0,1,1,2.8,5.55,5.55,0,0,1-1,2.8,10.45,10.45,0,0,1-2.1,2.1,23.11,23.11,0,0,1-5,2.9,62.16,62.16,0,0,1-10.7,3.8,184.39,184.39,0,0,1-21.8,4.6c-14.4,2.2-28.4,3.3-41.7,4a522.86,522.86,0,0,1-70.8-1.4c-20.1-1.8-36.3-4.8-47.1-8.5-5.4-1.8-9.5-3.9-11.8-6a8.08,8.08,0,0,1-2.1-3,6,6,0,0,1-.2-1.2v.2a4.22,4.22,0,0,0,.2,1,7.41,7.41,0,0,0,2.1,3.1c2.3,2.2,6.4,4.3,11.8,6.2,10.8,3.7,27,6.8,47.2,8.7a524.34,524.34,0,0,0,70.9,1.5,373,373,0,0,0,41.8-4,207.58,207.58,0,0,0,21.8-4.5,69.3,69.3,0,0,0,10.8-4,30.53,30.53,0,0,0,5.2-3,11.46,11.46,0,0,0,2.2-2.2,5.11,5.11,0,0,0,0-6.4h0a11.46,11.46,0,0,0-2.2-2.2,24.25,24.25,0,0,0-5.2-3,70.4,70.4,0,0,0-10.9-3.9,165.32,165.32,0,0,0-21.8-4.5c-14.4-2.2-28.5-3.3-41.7-4a524.34,524.34,0,0,0-70.9,1.5c-20.2,1.9-36.3,4.9-47.2,8.7-5.4,1.9-9.5,4-11.8,6.2a7.84,7.84,0,0,0-2.1,3.1,3.12,3.12,0,0,0-.2,1v.5Z" transform="translate(-577.81 -239.54)"/><path class="cls-3" d="M990.81,708.34a4,4,0,0,0-.2,1.5,10.8,10.8,0,0,0-.2,1.7,9.64,9.64,0,0,0,0,2.4,40.42,40.42,0,0,0,.8,6.1,38.31,38.31,0,0,0,2.4,7,33.72,33.72,0,0,0,7.6,10.5,34.42,34.42,0,0,0,2.9,2.5,3.71,3.71,0,0,0,1.2.7c.1-.2-1.5-1.3-3.8-3.6a35.76,35.76,0,0,1-7.3-10.5,39,39,0,0,1-2.4-6.8,42,42,0,0,1-1-6C990.81,710.54,991,708.44,990.81,708.34Z" transform="translate(-577.81 -239.54)"/><path class="cls-3" d="M978.61,709.64a2.44,2.44,0,0,0,0,1.2,6,6,0,0,0,.1,1.4,12.13,12.13,0,0,1,.2,1.9,31,31,0,0,0,3.5,10.1,33.94,33.94,0,0,0,6.3,8.1,23,23,0,0,0,2.4,1.9l.9.6c.1-.1-1.2-1-3-2.9a37.08,37.08,0,0,1-6.1-8,33.61,33.61,0,0,1-3.6-9.9C978.81,711.34,978.81,709.54,978.61,709.64Z" transform="translate(-577.81 -239.54)"/><image class="cls-1" width="408" height="564" transform="translate(130 33)" xlink:href="../../Desktop/New%20folder%20(2)/F5F85C2F.png"/><path class="cls-5" d="M881.81,674.84l23.8,139H823l-12.5-66.1-8.3,66.1h-83s-2-153.1,24.1-197.4Z" transform="translate(-577.81 -239.54)"/><path class="cls-6" d="M939.41,324l-29.2,80.5a17.33,17.33,0,0,0,3.3,17.5l23,25c7.2,7.8,19.2,5.3,23.3-4.8l.2-.4c2.3-5.7,7.4-9.4,13-9.5,7.2-.2,16.9-3.1,22.8-16.6,4.9-11.2,13.2-35.3,20.6-57.2,8.1-24.2-1.9-51.5-22.6-61.5h0c-21-10.1-45.1,1.4-53.8,25.8A2.73,2.73,0,0,0,939.41,324Z" transform="translate(-577.81 -239.54)"/><path class="cls-7" d="M964.21,431s-13.2-6-22.5-23.3c0,0-.8,20.2,20,29.3Z" transform="translate(-577.81 -239.54)"/><path class="cls-8" d="M1003.21,372A3.08,3.08,0,0,1,999.3,374l-.29-.12a3.7,3.7,0,0,1-1.8-4.5v-.1a3.08,3.08,0,0,1,3.91-1.92l.29.12A3.78,3.78,0,0,1,1003.21,372Z" transform="translate(-577.81 -239.54)"/><path class="cls-8" d="M1006.91,368.14c-.5.2-1.9-2.9-5-4.5s-6.1-1.2-6.2-1.8c-.1-.3.6-.9,1.9-1.1a7.74,7.74,0,0,1,5.3,1,9,9,0,0,1,3.7,4.2C1007.11,367,1007.11,368,1006.91,368.14Z" transform="translate(-577.81 -239.54)"/><path class="cls-8" d="M973.61,357.24c-.8,1.8-2.6,2.6-4.2,1.7a3.75,3.75,0,0,1-1.8-4.5.09.09,0,0,1,.1-.1,3.08,3.08,0,0,1,3.91-1.92l.29.12a3.93,3.93,0,0,1,1.7,4.7Z" transform="translate(-577.81 -239.54)"/><path class="cls-8" d="M976.41,351.74c-.5.2-1.9-2.9-5-4.5s-6.1-1.2-6.2-1.8c-.1-.3.6-.9,1.9-1.1a7.74,7.74,0,0,1,5.3,1,9,9,0,0,1,3.7,4.2C976.71,350.74,976.61,351.64,976.41,351.74Z" transform="translate(-577.81 -239.54)"/><path class="cls-8" d="M976.41,384.54c.1-.2,2.1.5,5.4,1.7.8.3,1.7.6,2.1,0a5.12,5.12,0,0,0,.6-3c.2-2.6.4-5.4.6-8.2.9-11.7,2-21.1,2.4-21.1s0,9.6-.9,21.3c-.2,2.9-.5,5.6-.7,8.2a7,7,0,0,1-1.1,3.8,1.83,1.83,0,0,1-1.8.6,3.63,3.63,0,0,1-1.4-.6C978.31,385.84,976.41,384.74,976.41,384.54Z" transform="translate(-577.81 -239.54)"/><path class="cls-8" d="M966.41,381.84c.5.2-1.1,4.1.6,8.5s5.5,6,5.3,6.5c0,.2-1.1.3-2.7-.5a9.62,9.62,0,0,1-4.5-5.2,11.18,11.18,0,0,1-.3-7C965.41,382.54,966.21,381.74,966.41,381.84Z" transform="translate(-577.81 -239.54)"/><path class="cls-8" d="M983,338.24c-.7.8-3.6-1.4-7.4-2.9s-7.2-2.1-7.3-3.2c0-.6.8-1.2,2.4-1.4a12.43,12.43,0,0,1,11.2,4.6C983,336.74,983.41,337.84,983,338.24Z" transform="translate(-577.81 -239.54)"/><path class="cls-8" d="M1010.11,357.14c-.8.5-2.7-1.5-5.2-3s-4.9-2.1-5.1-3.3c0-.6.6-1.1,1.9-1.4,3.3-.4,6.6,1.6,8.3,5C1010.51,355.84,1010.51,356.94,1010.11,357.14Z" transform="translate(-577.81 -239.54)"/><path class="cls-8" d="M971.61,311.14h-.2a17.73,17.73,0,0,0-10.8,8.5c-.1.2-.2.3-.2.5-3.6,6.2-6.2,13-9.8,19.2s-8.4,11.8-14.5,14c-2.5.9-6.1.5-6.6-2.5a7,7,0,0,1,.5-3.5c5.6-16.6,7.8-32.9,14.8-49.6a14.33,14.33,0,0,1,9.8-8.7c4.1-.8,8.8-1.4,11.4,2.4s4,13.5,5.3,18.1" transform="translate(-577.81 -239.54)"/><path class="cls-6" d="M941.61,338.74c-.3-.4-11.8-12.5-18,3.7s9.1,20,9.2,19.6S941.61,338.74,941.61,338.74Z" transform="translate(-577.81 -239.54)"/><path class="cls-7" d="M930.91,353.64c0-.1-.3,0-.8.1a2.27,2.27,0,0,1-1.8-.9c-1.2-1.4-1.4-4.8-.4-7.7a12.51,12.51,0,0,1,2.2-3.7,2.79,2.79,0,0,1,2.7-1.2,1.51,1.51,0,0,1,1.2,1.5,1.68,1.68,0,0,1-.2.9c.1.1.4-.1.5-.9a2,2,0,0,0-.2-1.3,1.65,1.65,0,0,0-1.2-1.1,3.64,3.64,0,0,0-3.6,1.2,10.37,10.37,0,0,0-2.6,4.1c-1.2,3.3-.9,7.1.8,8.8a2.66,2.66,0,0,0,2.4.7C930.81,354,931,353.64,930.91,353.64Z" transform="translate(-577.81 -239.54)"/><path class="cls-8" d="M962.11,295.34c-1.8-8,10.6-14.2,18.4-14.3s16.3,7.3,22.7,12.6c4,3.3,7.9,7.3,12.7,8.8a30.57,30.57,0,0,0,10,.6,21,21,0,0,1,9.9,1.2,10.43,10.43,0,0,1,6.2,8.3c.3,3.8-2.7,7.9-5.9,7.3,4.7-1.1,9.7,4.3,8.9,9.8s-6.9,9-11,6.2c2.5-1.1,4.9,3,3.9,6s-4,4.3-6.6,4.6c-6.9,1-13.7-2.5-19.3-7.2s-10.4-10.6-16-15.4-14.7-13.3-21.6-12.9c-5.1.2-10,5.5-12.2,3.2a12,12,0,0,1-2.6-9.2,28.34,28.34,0,0,1,2.5-9.6" transform="translate(-577.81 -239.54)"/><path class="cls-9" d="M1034.81,320.54a9.84,9.84,0,0,1,.5.9,5,5,0,0,1,.7,2.7c-.1,3.7-2.5,6.9-5.7,7.4a10.63,10.63,0,0,1-6.3-1,24.67,24.67,0,0,1-6.4-4.5c-4.1-3.9-7.5-9.5-11.3-15.2s-7.7-11-12.4-14.1a17.31,17.31,0,0,0-7.2-2.9,16.13,16.13,0,0,0-6.6.2,19.84,19.84,0,0,0-8.6,4.8,17.75,17.75,0,0,0-2.4,3,31.54,31.54,0,0,1,2.6-2.7,18.21,18.21,0,0,1,8.5-4.6,15.65,15.65,0,0,1,6.5-.2,21.2,21.2,0,0,1,7,2.9c4.6,3.1,8.5,8.2,12.2,14s7.2,11.3,11.4,15.3a25.36,25.36,0,0,0,6.5,4.5,10.83,10.83,0,0,0,6.6,1,6.58,6.58,0,0,0,2.7-1.2,7.62,7.62,0,0,0,1.9-2.1,9,9,0,0,0,1.2-4.6,5.7,5.7,0,0,0-.8-2.9A1.84,1.84,0,0,0,1034.81,320.54Z" transform="translate(-577.81 -239.54)"/><path class="cls-9" d="M988.51,287.84a9.84,9.84,0,0,0-.9-.5,12.34,12.34,0,0,0-2.6-.7c-6.1-1-12,2.6-15,8.9a14.31,14.31,0,0,0-1.1,2.9,2.18,2.18,0,0,0-.2,1.1c.1,0,.5-1.5,1.6-3.7a17.72,17.72,0,0,1,6.2-6.8,13.79,13.79,0,0,1,8.4-1.8A24.37,24.37,0,0,1,988.51,287.84Z" transform="translate(-577.81 -239.54)"/><path class="cls-9" d="M939.61,312.74a3.18,3.18,0,0,0,1,1,5.35,5.35,0,0,0,3.4.8,8.31,8.31,0,0,0,4.8-2.3,30.08,30.08,0,0,0,4.3-5.5,27.52,27.52,0,0,1,4.2-5.3,7.67,7.67,0,0,1,4.6-2.2,5.47,5.47,0,0,1,3.3.6c.7.4,1.1.8,1.1.7s-.2-.5-1-1a5.33,5.33,0,0,0-3.4-.9,8.42,8.42,0,0,0-4.9,2.2,24.93,24.93,0,0,0-4.3,5.4,31,31,0,0,1-4.1,5.3,7.57,7.57,0,0,1-4.5,2.3,5.37,5.37,0,0,1-3.3-.5C940,313,939.61,312.64,939.61,312.74Z" transform="translate(-577.81 -239.54)"/><path class="cls-9" d="M936.41,323.84a.72.72,0,0,0,.3.3,3.29,3.29,0,0,0,1,.6,10.8,10.8,0,0,0,3.9,1.5,16.54,16.54,0,0,0,13-3,31.64,31.64,0,0,0,9.1-11.3,9.41,9.41,0,0,1,1.2-2.2,2.31,2.31,0,0,1,1.4-1,1.71,1.71,0,0,1,1.4.1,1.3,1.3,0,0,0-1.4-.3,4,4,0,0,0-1.5,1,9.73,9.73,0,0,0-1.3,2.2,30.59,30.59,0,0,1-9,11,15.91,15.91,0,0,1-12.6,3.1A21.08,21.08,0,0,1,936.41,323.84Z" transform="translate(-577.81 -239.54)"/><path class="cls-10" d="M810.21,473.14c18.3-24.2,45.3-53.7,69.4-58.7,4.9-1,19.1-.5,23.4-.2l5.2-9.2a2.31,2.31,0,0,1,3.07-1.12,1.27,1.27,0,0,1,.23.12c.1.1.2.2.3.2l46.3,40.7a3.76,3.76,0,0,1,.8,4.3l-2,4.5,3.7,16.5c4.5,20,1.3,41.3-8.9,58.4l-68.7,115-1.2,30.4c-8.4,6.4-67.1,19.2-92.6,9.9-22.2-8.1-46.3-43.6-52.4-52.9a5,5,0,0,1-.4-4.7C743.81,608.54,789.61,500.44,810.21,473.14Z" transform="translate(-577.81 -239.54)"/><path class="cls-10" d="M1039.61,638.14l-59.5-54s-6.6-99.2-7.1-101.3c-3.4-14.8-19.1-33.5-19.1-33.5l-28.8,107.5.8,24.4a71.84,71.84,0,0,0,13.6,40.2l.3.4a58.71,58.71,0,0,0,16,14.7l61.1,37.7Z" transform="translate(-577.81 -239.54)"/><path class="cls-8" d="M885.51,636.54c.1-.1.2-.2.2-.3l.6-.9,2.3-3.3c2-2.9,4.7-7.2,8-12.5,6.7-10.7,15.6-25.6,25.2-42.4s18.1-32,24.2-43.2l7.1-13.2,2-3.7a9.33,9.33,0,0,0,.5-1c.1-.1.1-.2.2-.3a1.21,1.21,0,0,0-.2.3l-.5.9-2,3.6-7.3,13c-6.2,11.1-14.8,26.3-24.4,43s-18.4,31.7-25,42.5c-3.3,5.3-5.9,9.7-7.8,12.6l-2.1,3.4-.5.9C885.61,636.44,885.51,636.54,885.51,636.54Z" transform="translate(-577.81 -239.54)"/><path class="cls-10" d="M896.41,439l4.9,150.3,98.1,54.7-8.3,34.7s-52-1.6-95.7-17.6c-31.4-11.4-53.7-44-56.4-82-3.2-45.7-7.2-104.5-7.1-108.1C832.21,464.94,875.81,430.24,896.41,439Z" transform="translate(-577.81 -239.54)"/><path class="cls-10" d="M880.31,424.54l1.1.2c.5.1.9.1,1.4.2l1.8.6a18.31,18.31,0,0,1,9.3,9.5c2.8,5.5,4.7,13.2,5.8,22.3a181.81,181.81,0,0,1,.7,31.3h0c.2,27.6.4,61.9.7,100.7v.2l.2.1,97.7,53.6-.2-.4c-1.9,8.7-3.9,17.8-5.9,27.1-.7,3-1.3,6-1.9,8.8l.3-.2a380.76,380.76,0,0,1-55.3-6.7c-8.8-1.7-17.5-3.8-25.9-6.2l-6.2-1.9-6.1-2.1a52.2,52.2,0,0,1-5.9-2.3,49.48,49.48,0,0,1-5.7-2.7c-14.2-7.6-26.2-19.9-34.5-35.3a98.9,98.9,0,0,1-8.8-22.3,116.51,116.51,0,0,1-3.5-22.2c-2.1-28.8-3.7-52-4.9-68.1-.5-8-1-14.2-1.3-18.4-.2-2.1-.2-3.7-.3-4.8v.1c0,1.1.1,2.7.2,4.8.2,4.2.6,10.5,1.2,18.5,1.1,16.1,2.7,39.3,4.6,68.1a127.3,127.3,0,0,0,3.4,22.3,100.52,100.52,0,0,0,8.8,22.3c8.3,15.5,20.4,27.9,34.6,35.6a30.28,30.28,0,0,0,5.8,2.7c2,.7,4,1.7,6,2.3l6.2,2.1c2.1.6,4.1,1.3,6.2,1.9,8.4,2.4,17.1,4.5,26,6.3a383.48,383.48,0,0,0,55.5,6.7h.1v-.3c.6-2.7,1.3-5.8,1.9-8.8l5.9-27.1.1-.3-.2-.2-97.7-53.3.2.3c-.3-38.9-.6-73.1-.8-100.7h0a173.38,173.38,0,0,0-.8-31.4c-1.1-9.1-3-16.9-5.9-22.4a18.87,18.87,0,0,0-9.4-9.5l-1.9-.6a3.5,3.5,0,0,0-1.4-.2Z" transform="translate(-577.81 -239.54)"/><path class="cls-8" d="M807.71,607.54a9.83,9.83,0,0,0,1.6,1.2c1.1.7,2.6,1.7,4.5,2.9a130.71,130.71,0,0,0,15.4,7.9,139.25,139.25,0,0,0,16.1,5.7c2.1.6,3.8,1,4.9,1.3a10.91,10.91,0,0,0,1.8.3,12.67,12.67,0,0,0-1.8-.6c-1.2-.3-2.9-.8-4.9-1.4-4.2-1.3-9.9-3.3-16-5.9a147,147,0,0,1-15.5-7.7c-1.9-1.1-3.5-2-4.6-2.6A3,3,0,0,0,807.71,607.54Z" transform="translate(-577.81 -239.54)"/><path class="cls-8" d="M785.21,634.34a3.64,3.64,0,0,0,.7.6l2.1,1.8,1.5,1.3a16.31,16.31,0,0,0,1.9,1.4c1.4,1,2.9,2.1,4.7,3.2l2.8,1.7c1,.6,2.1,1.1,3.2,1.7,2.2,1.2,4.6,2.1,7.1,3.3a79.67,79.67,0,0,0,17.1,4.5,85.35,85.35,0,0,0,17.5.6c2.7-.3,5.3-.6,7.6-1a30.14,30.14,0,0,0,3.4-.7l3.1-.9c2-.5,3.7-1.2,5.3-1.7.8-.3,1.5-.6,2.1-.8l1.8-.8,2.4-1a3.47,3.47,0,0,0,.8-.5l-.9.3-2.4,1-1.8.7c-.7.2-1.4.5-2.1.7a42.54,42.54,0,0,1-5.3,1.6l-3.1.8c-1.1.2-2.2.4-3.4.6-2.4.5-4.9.7-7.5,1a76.81,76.81,0,0,1-34.4-5.1c-2.5-1-4.9-2-7.1-3.1-1.1-.6-2.1-1-3.1-1.6l-2.8-1.7a47.67,47.67,0,0,1-4.7-3.1,16.31,16.31,0,0,1-1.9-1.4l-1.5-1.3-2.2-1.7A3.64,3.64,0,0,1,785.21,634.34Z" transform="translate(-577.81 -239.54)"/><g class="cls-11"><path d="M952.51,458.24a36,36,0,0,1-19.5,5.5,24.42,24.42,0,0,1-18.1-9.1c-5.3-6.4-7.5-15.7-13.2-21.5-1.8-1.8-4.2-3.7-4.1-6.5a4.75,4.75,0,0,1,3.4-4.3c1.8-.4,4,1.7,5.5,2.9,5.2,4.1,6.1,10.6,9.1,16.9,3.5,7.2,9.1,12.6,15.9,15.1a29.5,29.5,0,0,0,20.7-.1" transform="translate(-577.81 -239.54)"/></g><g class="cls-11"><path d="M882.81,655.54c-5.4,2.5-11.4-.3-16.7-3.1,0,0-19-8.9-28.6-39.7-4.4-14.3-8.4-28.9-8.4-44.1a171.91,171.91,0,0,1,6.5-44.8c4,27-.4,54.9,8.9,81.6,7.5,21.5,21.4,39.1,39,50" transform="translate(-577.81 -239.54)"/></g><path class="cls-12" d="M950.41,525.54,929,599.74s-5.9-16-3.3-30Z" transform="translate(-577.81 -239.54)"/><g class="cls-11"><path d="M859.31,651.34c-9.7,6.1-20.4,7.7-31.5,7.4a96.25,96.25,0,0,1-32.4-7.5c-3-1.2-6.4-2.9-7.5-6.4a4.18,4.18,0,0,1,.8-4.2c1.1-.8,2.5-.3,3.7.2,13.1,5.8,26.1,13,40.1,13.7a78.86,78.86,0,0,0,26.8-3.2" transform="translate(-577.81 -239.54)"/></g><path class="cls-13" d="M906.91,410c.1.2.2.5.3.7a14.92,14.92,0,0,0,.9,2c.8,1.7,2,4.1,3.6,7.1s3.5,6.4,5.9,10.1a67.52,67.52,0,0,0,8.8,11,38,38,0,0,0,11,7.8,31.31,31.31,0,0,0,10.2,2.9,21.25,21.25,0,0,0,7.1-.6,12.67,12.67,0,0,0,1.8-.6,2.12,2.12,0,0,1,.6-.2,27.69,27.69,0,0,1-9.5.9,31.76,31.76,0,0,1-10-2.9,38.29,38.29,0,0,1-10.7-7.8c-6.9-6.8-11.4-14.9-14.6-20.7-1.6-2.9-2.8-5.3-3.7-6.9l-1-1.9C907.21,410.44,907,410.34,906.91,410Z" transform="translate(-577.81 -239.54)"/><path class="cls-14" d="M903.21,466.24l.5.5,1.4,1.3c1.2,1.1,3,2.7,5.3,4.5s5.1,3.9,8.3,6,6.8,4.3,10.7,6.4,7.6,3.7,11.1,5.2a97.84,97.84,0,0,0,9.4,3.3c2.7.8,4.9,1.4,6.4,1.7l1.8.4a1.23,1.23,0,0,0,.6.1,1.42,1.42,0,0,0-.6-.2l-1.8-.5c-1.5-.4-3.7-1-6.3-1.9s-5.8-2-9.3-3.4a119.08,119.08,0,0,1-11-5.2c-3.8-2-7.4-4.2-10.7-6.3s-6-4.1-8.3-5.9-4.2-3.3-5.4-4.3l-1.4-1.2A2.3,2.3,0,0,0,903.21,466.24Z" transform="translate(-577.81 -239.54)"/><path class="cls-13" d="M900.61,529.14a13.55,13.55,0,0,0,1.4,1.1c.9.6,2.2,1.5,3.9,2.6a71.15,71.15,0,0,0,28.2,9.9q2.85.3,4.5.3a4.85,4.85,0,0,0,1.7,0,4.57,4.57,0,0,0-1.6-.2c-1.1-.1-2.6-.3-4.4-.6a78.67,78.67,0,0,1-28.1-9.9c-1.7-1-3-1.8-4-2.4A8,8,0,0,0,900.61,529.14Z" transform="translate(-577.81 -239.54)"/><path class="cls-13" d="M834.91,503.94a2.17,2.17,0,0,0,.6-.4l1.7-1.2,1.2-.9a11.49,11.49,0,0,0,1.4-1c1.1-.6,2.2-1.4,3.6-2.1l2.1-1.2c.8-.4,1.5-.7,2.4-1.1a53.28,53.28,0,0,1,5.3-2.2,62.06,62.06,0,0,1,25.6-3.4c2,.2,3.9.4,5.6.7a19.4,19.4,0,0,1,2.5.5l2.4.6c1.4.3,2.7.8,4,1.2a11.41,11.41,0,0,1,1.6.6l1.3.6,1.8.7a1.94,1.94,0,0,0,.7.2c-.2-.2-.4-.2-.6-.3l-1.8-.9-1.3-.6c-.5-.2-1-.4-1.6-.6a26.68,26.68,0,0,0-4-1.3l-2.4-.6a21.64,21.64,0,0,1-2.5-.6,50.32,50.32,0,0,0-5.6-.8,58,58,0,0,0-25.7,3.5,37.71,37.71,0,0,0-5.3,2.3c-.8.4-1.6.7-2.4,1.2l-2.1,1.2a39.89,39.89,0,0,0-3.6,2.3,7,7,0,0,0-1.4,1l-1.2,1a13.36,13.36,0,0,1-1.6,1.3C835.31,503.54,835.11,503.74,834.91,503.94Z" transform="translate(-577.81 -239.54)"/><path class="cls-13" d="M842.71,600.54s.5-1,1.4-2.6a42.41,42.41,0,0,1,4.3-6.7,53.35,53.35,0,0,1,19.4-15.5,104.9,104.9,0,0,1,23-7.3l7.1-1.5,1.9-.4a1.94,1.94,0,0,0,.7-.2h-.7l-2,.3a67.45,67.45,0,0,0-7.2,1.3,90.87,90.87,0,0,0-23.1,7.2,52,52,0,0,0-19.6,15.8,43.2,43.2,0,0,0-4.2,6.8,13.41,13.41,0,0,0-.9,2.1C842.81,600,842.71,600.34,842.71,600.54Z" transform="translate(-577.81 -239.54)"/><path class="cls-13" d="M906.71,663.24a1.36,1.36,0,0,0,.3-.6c.2-.4.4-1,.7-1.7.6-1.4,1.4-3.6,2.4-6.3,1.9-5.3,4.3-12.8,6.5-21.2s3.8-16.2,4.9-21.9c.5-2.9.9-5.1,1.1-6.7a15.73,15.73,0,0,0,.2-1.8v-.6a1.42,1.42,0,0,0-.2.6l-.4,1.8-1.3,6.7c-1.1,5.6-2.8,13.4-5,21.7s-4.6,15.9-6.3,21.3l-2.1,6.4-.5,1.7A.83.83,0,0,0,906.71,663.24Z" transform="translate(-577.81 -239.54)"/><path class="cls-13" d="M961.81,678a8.57,8.57,0,0,0,1-1.6c.6-1,1.4-2.6,2.4-4.6a99.33,99.33,0,0,0,9.1-33.7c.2-2.2.3-4.1.3-5.4a6.7,6.7,0,0,0,0-2,12.21,12.21,0,0,0-.2,2c-.1,1.3-.2,3.1-.5,5.3a105.26,105.26,0,0,1-9.1,33.5c-.9,2-1.7,3.7-2.2,4.7A9.67,9.67,0,0,1,961.81,678Z" transform="translate(-577.81 -239.54)"/><path class="cls-13" d="M967.71,621.74c.1,0,.5-2.1,1.5-5.3a52.1,52.1,0,0,1,2.2-5.5,45.3,45.3,0,0,1,7.9-11.7,49.18,49.18,0,0,1,4.1-3.8c2.4-2,4.1-2.9,4.1-3a6.72,6.72,0,0,0-1.2.6,21.64,21.64,0,0,0-3.1,2.1,50.5,50.5,0,0,0-4.3,3.7,42.34,42.34,0,0,0-8,11.8,56.32,56.32,0,0,0-2.1,5.6,26,26,0,0,0-1,4C967.81,620.74,967.71,621.24,967.71,621.74Z" transform="translate(-577.81 -239.54)"/><path class="cls-13" d="M928.51,563.44a8.51,8.51,0,0,0,1.8-1.1c1.1-.7,2.7-1.7,4.7-2.9a80.17,80.17,0,0,1,7.3-3.8c3-1.4,6.2-2.5,9.3-3.6a73.66,73.66,0,0,1,9.6-2.3c3-.5,5.7-.8,8-1s4.1-.2,5.4-.2a12.13,12.13,0,0,0,2-.1,6.74,6.74,0,0,0-2-.2,48.64,48.64,0,0,0-5.4,0,71.52,71.52,0,0,0-8,.8,65.45,65.45,0,0,0-19,6,74.84,74.84,0,0,0-7.3,4,53.27,53.27,0,0,0-4.7,3.2A3.55,3.55,0,0,0,928.51,563.44Z" transform="translate(-577.81 -239.54)"/><path class="cls-13" d="M964.41,488.44a17.27,17.27,0,0,1,4,.2,20,20,0,0,1,3.7,1.7,5.57,5.57,0,0,0-3.7-2.5A4.87,4.87,0,0,0,964.41,488.44Z" transform="translate(-577.81 -239.54)"/><path class="cls-13" d="M1006,670.64a5.16,5.16,0,0,0,.9-1.6l2.4-4.5c2.1-3.7,4.9-8.9,8.1-14.5s6.3-10.7,8.5-14.2l2.7-4.3a5.16,5.16,0,0,0,.9-1.6,13.55,13.55,0,0,0-1.1,1.4c-.7,1-1.7,2.4-2.8,4.1-2.4,3.5-5.5,8.5-8.7,14.2s-6,10.9-8,14.7a43.11,43.11,0,0,0-2.2,4.6A11.92,11.92,0,0,0,1006,670.64Z" transform="translate(-577.81 -239.54)"/><path class="cls-13" d="M832.51,472.94s.2-1,.4-2.5a50.62,50.62,0,0,1,1.4-6.8c3.8-15.1,13.6-27.2,26.2-32.8a40.18,40.18,0,0,1,5.8-2.1c1.4-.4,2.2-.6,2.2-.6h-.6c-.4,0-.9.2-1.7.3a41,41,0,0,0-5.9,1.9c-12.9,5.4-22.8,17.7-26.5,33.2-.5,2.3-.9,4.6-1.2,7-.1.8-.2,1.5-.2,1.9A1.71,1.71,0,0,0,832.51,472.94Z" transform="translate(-577.81 -239.54)"/><path class="cls-13" d="M784.71,519.14a2.17,2.17,0,0,0,.4.6l1.2,1.6c.5.7,1.1,1.5,1.9,2.5s1.6,2,2.6,3.1a101.3,101.3,0,0,0,7.3,7.5,91.09,91.09,0,0,0,20.3,14.3c3,1.5,6,2.9,9.1,4.1,1.3.6,2.5.9,3.6,1.3s2,.6,2.7.8l1.8.5a1.23,1.23,0,0,0,.6.1,1.42,1.42,0,0,0-.6-.2l-1.7-.6a23.63,23.63,0,0,1-2.7-1c-1.1-.4-2.2-.8-3.6-1.4-2.6-1-5.6-2.5-9-4.1a100.72,100.72,0,0,1-10.4-6.4,117.34,117.34,0,0,1-9.7-7.8,100.55,100.55,0,0,1-7.3-7.3c-1-1-1.9-2.1-2.7-3s-1.4-1.7-2-2.3l-1.2-1.5A1.83,1.83,0,0,0,784.71,519.14Z" transform="translate(-577.81 -239.54)"/><path class="cls-13" d="M762.91,572.54a.47.47,0,0,0,.1.3l.4,1c.3.9.8,2.1,1.5,3.7a127.84,127.84,0,0,0,6.6,12.8,122.06,122.06,0,0,0,12.4,16.9,95.2,95.2,0,0,0,40,27,87.43,87.43,0,0,0,18.7,4.2,79.42,79.42,0,0,0,12.9.4c1.5,0,2.7-.2,3.5-.2l.9-.1a.37.37,0,0,0,.3-.1H859c-.8,0-2,.2-3.6.2a109.48,109.48,0,0,1-12.8-.6,85.51,85.51,0,0,1-18.6-4.4c-25.3-9-46.5-29.2-59.1-56.2-.8-1.5-1.2-2.7-1.6-3.6a9.33,9.33,0,0,0-.5-1C763.11,572.64,763,572.54,762.91,572.54Z" transform="translate(-577.81 -239.54)"/><path class="cls-13" d="M742.41,614.44c.1.2.2.3.2.4l.6,1.3a21.56,21.56,0,0,0,1.1,2l1.6,2.5a71.86,71.86,0,0,0,12.6,13.7c2.9,2.5,6.2,5.2,9.7,8.1a141.78,141.78,0,0,1,10.8,9.7c3.7,3.7,6.9,8.2,10.5,12.6s7.8,8.9,13,11.4a40.74,40.74,0,0,0,15.9,4.1c5.3.4,10.4.2,15.2.2a140.23,140.23,0,0,0,25.7-2.4,55.59,55.59,0,0,0,16.5-6l2.4-1.4c.7-.4,1.2-.9,1.7-1.2l1.1-.7c.2-.1.2-.2.3-.2-.2.1-.2.2-.4.2l-1.1.7c-.5.3-1.1.7-1.8,1.1l-2.4,1.4a61.84,61.84,0,0,1-16.5,5.7,146.45,146.45,0,0,1-25.6,2.2c-4.8.1-9.9.2-15.1-.2a39,39,0,0,1-15.8-4.1c-5.1-2.5-9.2-6.8-12.8-11.3s-6.9-9-10.7-12.6a122.19,122.19,0,0,0-10.9-9.7c-3.6-2.9-6.9-5.5-9.7-8a74.2,74.2,0,0,1-12.7-13.5l-1.7-2.5A19.94,19.94,0,0,1,743,616a9,9,0,0,0-.7-1.2C742.11,614.54,742.41,614.34,742.41,614.44Z" transform="translate(-577.81 -239.54)"/><path class="cls-13" d="M1081.61,715.94a5.52,5.52,0,0,1-7.8-.37c-.07-.07-.13-.15-.2-.23a6.64,6.64,0,0,0-1.3,4.3,24.63,24.63,0,0,1-.2,4.7,3.53,3.53,0,0,1-2.7,3.1,3.06,3.06,0,0,1-2.8-2.1,10.46,10.46,0,0,1-.8-3.9l-.8-7.8c-.6,1.1-1.4,2.4-2.5,2.3-1.4-.1-2-2.1-2.1-3.7s-.1-3.4-1.2-4.3a1.57,1.57,0,0,1-2,1,1.52,1.52,0,0,1-.71-.49,5.29,5.29,0,0,1-.9-3.5,9.26,9.26,0,0,0-.4-3.7l11,.9Z" transform="translate(-577.81 -239.54)"/><path class="cls-6" d="M1093.11,654.24a4.23,4.23,0,0,0-3-2.1,42,42,0,0,1-6.5-1.2c-2.4-.6-15.1-7.7-17.9-9.1a29.31,29.31,0,0,0-10.9-2.1c-1.8.2-14.5-.9-14.5-.9l-20.1,22s7.9,24.6,17.2,29.9a184.43,184.43,0,0,1,18.7,12.5l7.2,1.6s13.7,11.8,17.3,11.1,4.4-2.5,4.4-2.5,4.4,2.9,6.8.3,0-6.6,0-6.6,3.6-.5,4-2.4a9.63,9.63,0,0,0-1.8-7.6c-2.1-2.7-16.4-20.7-19.3-23.1s-4.9-6.8-5.6-9.5,1.4-6.4,5.3-4.3,8.3,3.3,11.3,2.6C1090.31,662,1096.81,660.44,1093.11,654.24Z" transform="translate(-577.81 -239.54)"/><path class="cls-7" d="M1056.81,689.34a8.65,8.65,0,0,1,1.6-.2,7.31,7.31,0,0,1,4.1.6l.2.1.1-.2a8.1,8.1,0,0,1,3.6-4.8,3.55,3.55,0,0,1,3-.2l.5.2-.2-.6a7.86,7.86,0,0,1,.2-3.7,11.07,11.07,0,0,1,1.2-2.7c.3-.6.7-1.1,1-1.6a2.17,2.17,0,0,0,.4-.6,7.23,7.23,0,0,0-1.8,1.9,11.39,11.39,0,0,0-1.3,2.7,7.25,7.25,0,0,0-.2,4.1l.4-.4a4.17,4.17,0,0,0-3.6.2,7,7,0,0,0-2.5,2.3,19.84,19.84,0,0,0-1.4,2.9l.4-.2a6.37,6.37,0,0,0-4.3-.3A3.32,3.32,0,0,0,1056.81,689.34Z" transform="translate(-577.81 -239.54)"/><path class="cls-7" d="M1070,684.24c1.1,1.1,2.1,2.2,3.3,3.3,2.1,2,4.8,4.8,7.7,7.9,2.9,3.3,5.5,6.3,7.2,8.5a25.81,25.81,0,0,0,3,3.6,4.11,4.11,0,0,0-.7-1.1c-.5-.7-1.2-1.7-2-2.9a101.61,101.61,0,0,0-7.2-8.7c-3-3.3-5.8-6-7.8-7.9a25,25,0,0,0-2.5-2.1A3.29,3.29,0,0,0,1070,684.24Z" transform="translate(-577.81 -239.54)"/><path class="cls-7" d="M1062,689.64l.9.9,2.7,2.2c2.2,1.9,5.3,4.5,8.6,7.5a70.48,70.48,0,0,1,8.1,8.2,46.93,46.93,0,0,1,2.5,4.2,5.74,5.74,0,0,0-.4-1.4,20.68,20.68,0,0,0-1.8-3.3,53.45,53.45,0,0,0-8-8.4c-3.3-3-6.5-5.6-8.8-7.3q-1.8-1.35-2.7-2.1A2.63,2.63,0,0,1,1062,689.64Z" transform="translate(-577.81 -239.54)"/><path class="cls-7" d="M1053.41,690.44a3.51,3.51,0,0,0,1.1,1,32.85,32.85,0,0,0,3.1,2.4,30.7,30.7,0,0,0,5.1,2.7,35.37,35.37,0,0,0,6.6,2,5.77,5.77,0,0,1,3,1.7,3.64,3.64,0,0,1,.9,3.2,4.45,4.45,0,0,1-3.6,3.8,6.46,6.46,0,0,1-3.6-.5c-.5-.2-.8-.4-1.3-.6a8.64,8.64,0,0,0,1.2.8,5.36,5.36,0,0,0,3.7.6,5.7,5.7,0,0,0,2.5-1.2,5.45,5.45,0,0,0,1.6-3.1,4.37,4.37,0,0,0-1.1-3.7,5.76,5.76,0,0,0-3.3-1.8,36.38,36.38,0,0,1-11.6-4.4C1055,691.74,1053.51,690.34,1053.41,690.44Z" transform="translate(-577.81 -239.54)"/><path class="cls-13" d="M1069.61,685.14a2.88,2.88,0,0,0,1.4,2.7,2.42,2.42,0,0,0,2.7-.2c.5-.4,1.1-1,1.8-1s1.3.8,2,.7a1.62,1.62,0,0,0,1-1.8,4,4,0,0,0-1.4-2.1,4.86,4.86,0,0,0-3.7-1.3A4.29,4.29,0,0,0,1069.61,685.14Z" transform="translate(-577.81 -239.54)"/><path class="cls-15" d="M1028.81,648.34c1.7-2.5,4.5-3.7,7.1-2.7a9.08,9.08,0,0,1,2.8-8.7,4.78,4.78,0,0,1,6.64,1.28,4.89,4.89,0,0,1,.56,1.12,5.1,5.1,0,0,1,7-1.79,5.59,5.59,0,0,1,.91.69,7,7,0,0,1,2.1,5.6s5-4.7,8.6,1.3a12.76,12.76,0,0,1-8.1,2.7,8.7,8.7,0,0,1-4.9,7.8c-4.9,2-7.3-1.3-7.3-1.3s-.9,7.9-5,7.2l-9.8-4.3-.5-.3A8.53,8.53,0,0,1,1028.81,648.34Zm11.7-11.5c-.3,0-.5.2-.5.6h0a.56.56,0,0,0,.5.6h0c.3,0,.5-.2.5-.6h0C1041,637,1040.81,636.84,1040.51,636.84Zm1.6,3.9c.3,0,.5-.2.5-.6h0a.56.56,0,0,0-.5-.6h0c-.3,0-.5.2-.5.6h0C1041.71,640.44,1041.81,640.74,1042.11,640.74Zm0-1.8a1,1,0,0,0,.2-2,1,1,0,0,0-1.1.9v.09h0C1041.21,638.54,1041.51,638.94,1042.11,638.94Zm-1.9,6a1,1,0,0,0,.9-1,.93.93,0,0,0-.84-1h-.06a1,1,0,0,0-.9,1h0A1,1,0,0,0,1040.21,644.94Zm-.7-2.8a2.13,2.13,0,1,0-1.77-2.43,1.84,1.84,0,0,0,0,.33h0a1.94,1.94,0,0,0,1.77,2.1Zm-2.4,8.2a1,1,0,0,0,.9-1,.93.93,0,0,0-.84-1h-.06a1,1,0,0,0-.9,1h0C1036.31,649.84,1036.71,650.34,1037.11,650.34Zm-1.6-2c.3,0,.5-.2.5-.6a.56.56,0,0,0-.5-.6c-.3,0-.5.2-.5.6A.56.56,0,0,0,1035.51,648.34Zm-2,2.5a1.38,1.38,0,0,0,1.3-1.45v0a1.43,1.43,0,0,0-1.3-1.5,1.38,1.38,0,0,0-1.3,1.45v.05h0A1.51,1.51,0,0,0,1033.51,650.84Zm-1.7.8c.3,0,.5-.2.5-.6s-.2-.6-.5-.6-.5.2-.5.6A.56.56,0,0,0,1031.81,651.64Z" transform="translate(-577.81 -239.54)"/><path class="cls-13" d="M1038.91,683.54a3.22,3.22,0,0,1,3-1.1,11.82,11.82,0,0,1,3.1,1.1c.8-2.8,3.3-4.3,5.8-3.4a5.33,5.33,0,0,1,3,3.5,4.49,4.49,0,0,1,3.7-.8,4.14,4.14,0,0,1,2.7,3,3.55,3.55,0,0,1-1.5,3.7,21.75,21.75,0,0,1-2.4.5,1.91,1.91,0,0,0-1.5,1.8,7.85,7.85,0,0,0,.7,1.6,4.38,4.38,0,0,1-.8,5.2l1.8,1.4c.8,2.1-.7,3.7-2.7,4.1s-3.7-1.3-4-3.5V700a5.67,5.67,0,0,1-6.7-1.2,6.15,6.15,0,0,1-.2-7.5,7,7,0,0,1-4.1-2.7A4.52,4.52,0,0,1,1038.91,683.54Zm6.3,12.9a.43.43,0,0,0-.4.4h0c0,.2.1.5.3.5s.4-.1.4-.3v-.2A.45.45,0,0,0,1045.21,696.44Zm2-14.3a1.42,1.42,0,1,0,1.18,1.62,1.64,1.64,0,0,0,0-.22A1.33,1.33,0,0,0,1047.21,682.14Zm2.4-.4a.56.56,0,0,0-.5.6h0a.49.49,0,0,0,.36.59h0a.54.54,0,0,0,.5-.5v-.2c.1-.3-.1-.5-.4-.5Zm3,21.2a1.38,1.38,0,0,0,1.3-1.45v0a1.33,1.33,0,0,0-1.13-1.49h-.17a1.38,1.38,0,0,0-1.3,1.45v.05h0C1051.41,702.24,1051.91,702.94,1052.61,702.94Zm-2.3-3.9a.77.77,0,0,0,.7-.8.71.71,0,0,0-.61-.79h-.09a.77.77,0,0,0-.7.8.66.66,0,0,0,.5.79A.67.67,0,0,0,1050.31,699Zm-.7-13.6a.87.87,0,0,0,.7-1c-.1-.4-.3-.8-.7-.8a1,1,0,0,0-.9.8.78.78,0,0,0,.53,1,.47.47,0,0,0,.17,0Zm-2.1,13.2a1.61,1.61,0,1,0-1.39-1.81,1.48,1.48,0,0,0,0,.21h0C1046.11,697.94,1046.71,698.74,1047.51,698.64Zm-2.1.8a.77.77,0,0,0,.7-.8.71.71,0,0,0-.61-.79h-.09a.81.81,0,0,0-.67.93A.8.8,0,0,0,1045.41,699.44Zm-1.4-.9a.4.4,0,0,0,.4-.4.39.39,0,0,0-.4-.4h0c-.2,0-.4.2-.3.4s.1.5.3.4Zm-1.2-13.1c.5,0,.8-.4.8-1a.92.92,0,0,0-.8-1c-.5,0-.8.4-.8,1h0a.82.82,0,0,0,.6,1Zm-1.3-1.5c.2.1.5-.2.5-.4a.71.71,0,0,0-.3-.6h-.2a.5.5,0,0,0-.3.6C1041.21,683.74,1041.41,683.84,1041.51,683.94Z" transform="translate(-577.81 -239.54)"/><path class="cls-13" d="M1050,672.44a6.11,6.11,0,0,1,.7-3.3,1.58,1.58,0,0,1,2.12-.71l.18.11.2.2a4.15,4.15,0,0,1,1.7-5.2,2.87,2.87,0,0,1,3.3.3,3.23,3.23,0,0,1,4.39-1.25,3.54,3.54,0,0,1,.51.35,6.16,6.16,0,0,0,4.4,6.4,5.34,5.34,0,0,1,.5,4.1s3.3,1,1.9,3.4-8.7,1.5-8.7,1.5,2.1,2.2-1.2,2.7a6.64,6.64,0,0,1-5.6-2.3s-4.3-.2-5.2-1.1C1048.51,676.84,1050,672.44,1050,672.44Zm17.1-1.7a.2.2,0,0,0-.2.2h0s.1.2.2.2a.2.2,0,1,0,0-.4Zm0,2.1a.61.61,0,1,0-.49-.71.41.41,0,0,0,0,.11h0C1066.71,672.64,1066.81,672.84,1067.11,672.84Zm-1.4-.7a1.42,1.42,0,1,0-1.18-1.62,1.64,1.64,0,0,0,0,.22A1.5,1.5,0,0,0,1065.71,672.14Zm-9.6-3.7c.3,0,.5-.2.5-.6a.56.56,0,0,0-.5-.6c-.3,0-.5.2-.5.6s.2.6.5.6Zm.4-2.8a1.21,1.21,0,1,0-1.2,1.4C1055.91,667,1056.41,666.44,1056.51,665.64Zm-1.9,3.2a.67.67,0,0,0,.7-.66v0h0a.77.77,0,0,0-.7-.8h0a.71.71,0,0,0-.71.71s0,.06,0,.09a.63.63,0,0,0,.55.7Z" transform="translate(-577.81 -239.54)"/><path class="cls-6" d="M999.41,643.94l-7.7,32.3s16.7,15.5,17.7,16.5a5.2,5.2,0,0,0,3.4,1.8c.9-.1,2.4-1.4,3.6-1.7s3.9-.7,4.6-.2a15.79,15.79,0,0,0,5.9,1.9c2.6.2,7.9,4.8,10.7,2.9a6.65,6.65,0,0,0,2.9-4.6s-5.3-2.5-6.1-4.1-4.7-8.6-5.2-10.2a48.62,48.62,0,0,1-.6-6.6s7.4.1,8.8.7,2.7,1.8,5.5,3,8,2.1,8.9,0,1.2-4.6.8-5.3c0,0-5.6-7.2-6.9-8.2s-15.8-9.1-19-11.1-14.9-11.6-27.3-7.1" transform="translate(-577.81 -239.54)"/><path class="cls-7" d="M999.41,643.94l.3-.1.8-.2c.4-.1.8-.2,1.4-.3l1.9-.3a23.54,23.54,0,0,1,12,1.9,39.1,39.1,0,0,1,7.8,4.2,95.62,95.62,0,0,0,9.1,5.5c3.3,1.8,6.8,3.8,10.4,6a24.7,24.7,0,0,1,2.6,1.7c.8.8,1.5,1.7,2.2,2.5,1.4,1.7,3,3.7,4.4,5.5h0a3.27,3.27,0,0,1,.1,1.7,13.65,13.65,0,0,1-.4,1.9l-.3.9c-.1.3-.2.3-.2.5s-.2.2-.2.3a2.67,2.67,0,0,1-1.4.7,7.81,7.81,0,0,1-3.4-.2,19.21,19.21,0,0,1-3.4-1,20.59,20.59,0,0,1-3.3-1.7c-.5-.3-1.1-.7-1.7-1a4.28,4.28,0,0,0-1.9-.6c-2.5-.3-5.1-.4-7.7-.5h-.3v.4a56.25,56.25,0,0,0,.5,5.8,6.52,6.52,0,0,0,.4,1.5c.2.5.4.9.6,1.4.5.9.8,1.7,1.4,2.6l1.8,3.3.8,1.6.4.8c.18.26.35.53.5.8a11.09,11.09,0,0,0,2.8,2c1,.6,1.9,1,2.9,1.5l-.2-.3a6,6,0,0,1-2.1,3.8,3.36,3.36,0,0,1-1.7,1,4.23,4.23,0,0,1-1.9-.2,23.75,23.75,0,0,1-3.7-1.6,13.31,13.31,0,0,0-3.9-1.5,15.83,15.83,0,0,1-3.7-1,13.15,13.15,0,0,1-1.8-.8,3.37,3.37,0,0,0-2-.3,10.1,10.1,0,0,0-3.8.8,15.15,15.15,0,0,0-1.7,1,2.4,2.4,0,0,1-1.6.4,8,8,0,0,1-3-1.9l-2.7-2.5-5.3-4.8-9.5-8.8.1.2,5.5-23.7c.6-2.7,1.1-4.9,1.4-6.4.2-.7.3-1.3.4-1.7a.82.82,0,0,0,.3-.8,1.42,1.42,0,0,1-.2.6l-.5,1.7c-.4,1.5-.9,3.7-1.6,6.4-1.4,5.6-3.3,13.7-5.7,23.6v.2l.1.1,9.5,8.9,5.3,4.9,2.7,2.5a7.79,7.79,0,0,0,3.3,2.1,1.7,1.7,0,0,0,1,0,3.64,3.64,0,0,0,.9-.4c.5-.3,1.1-.6,1.7-1a8.89,8.89,0,0,1,3.6-.7,3.79,3.79,0,0,1,1.8.2l1.8.9a13.18,13.18,0,0,0,3.9,1,16.88,16.88,0,0,1,3.7,1.4c1.2.6,2.5,1.2,3.8,1.7a7.42,7.42,0,0,0,2.1.2,4.86,4.86,0,0,0,2-1.1,7,7,0,0,0,2.3-4.3v-.2l-.2-.1c-1-.5-1.9-1-2.9-1.5a14.93,14.93,0,0,1-2.7-1.9c-.2-.2-.3-.4-.5-.6l-.4-.8-.8-1.6-1.8-3.3c-.5-.9-.9-1.7-1.3-2.6a8.07,8.07,0,0,1-1-2.6c-.2-1.9-.4-3.8-.5-5.7l-.4.3a62.21,62.21,0,0,1,7.6.4,3.82,3.82,0,0,1,1.7.6,14.75,14.75,0,0,1,1.6,1,15.44,15.44,0,0,0,3.4,1.7,14.92,14.92,0,0,0,3.6,1,11.49,11.49,0,0,0,3.7.1,3.75,3.75,0,0,0,1.8-.9,3.13,3.13,0,0,0,.5-1,2.9,2.9,0,0,0,.3-1,12.21,12.21,0,0,0,.4-2,3.1,3.1,0,0,0-.2-2.1h0c-1.5-1.9-3-3.7-4.5-5.5a25.9,25.9,0,0,0-2.3-2.5,15.14,15.14,0,0,0-2.7-1.7c-3.7-2.1-7.1-4.1-10.4-5.9a77.2,77.2,0,0,1-9.1-5.5,41,41,0,0,0-8-4.2,23.28,23.28,0,0,0-12.2-1.7l-1.9.3a9.72,9.72,0,0,1-1.4.4l-.9.2Z" transform="translate(-577.81 -239.54)"/><path class="cls-7" d="M1041.61,668.64c.2,0,.4-1.3.9-2.6a27.32,27.32,0,0,0,1.1-2.6c-.1-.1-1.1.7-1.6,2.3A4,4,0,0,0,1041.61,668.64Z" transform="translate(-577.81 -239.54)"/><path class="cls-7" d="M1016.51,686.94a5.63,5.63,0,0,0,.9,1.9,12.51,12.51,0,0,0,3.3,3.9,8.18,8.18,0,0,0,4.4,1.8,3.08,3.08,0,0,0,1.9,0,12.65,12.65,0,0,0-1.8-.5,9.89,9.89,0,0,1-4.1-2,18.81,18.81,0,0,1-3.3-3.6C1017,687.44,1016.61,686.84,1016.51,686.94Z" transform="translate(-577.81 -239.54)"/><path class="cls-7" d="M1029.11,666.24a10,10,0,0,0-.4,7,20.5,20.5,0,0,0,.2-3.5C1029,668.64,1029.11,667.44,1029.11,666.24Z" transform="translate(-577.81 -239.54)"/><path class="cls-7" d="M1031,668.14c-.1-.2-.9.3-1.4,1.5s-.5,2.2-.3,2.2.4-.9.8-1.9S1031,668.34,1031,668.14Z" transform="translate(-577.81 -239.54)"/><path class="cls-7" d="M1050.31,675.74c0-.1-.4-.4-.9-1a5.33,5.33,0,0,1-1.2-3,3.74,3.74,0,0,1,1.1-2.9c.6-.6,1.1-.6,1.1-.7s-.5-.2-1.4.2a2.85,2.85,0,0,0-1.1,1.3,5,5,0,0,0-.5,2.1,4.88,4.88,0,0,0,1.5,3.3C1049.81,675.74,1050.31,675.84,1050.31,675.74Z" transform="translate(-577.81 -239.54)"/><ellipse class="cls-13" cx="478.7" cy="477.8" rx="1.8" ry="2.1"/><path class="cls-13" d="M1079.81,688.24a1.77,1.77,0,0,0,3.46.74,1.64,1.64,0,0,0,0-.44v-.3a1.8,1.8,0,0,0-1.82-1.8h-.08A2,2,0,0,0,1079.81,688.24Z" transform="translate(-577.81 -239.54)"/><image class="cls-1" width="151" height="138" transform="translate(460 358)" xlink:href="../../Desktop/New%20folder%20(2)/F5F85C2A.png"/><polyline class="cls-16" points="482.9 441.1 482.9 390.4 475.7 390.4 475.8 429.9 475.5 440.1"/><path class="cls-3" d="M1053.31,679.64a3.07,3.07,0,0,0,.1-1c0-.7.1-1.7.2-2.9.1-2.5.4-6,.3-10.6v-35.3l-.3.4h7.2l-.3-.4c0,14.2.1,26.8.1,36,0,4.5.1,8.2.1,10.8a25.47,25.47,0,0,0,.1,2.9v1c0-.3.1-.7.1-1v-2.9c0-2.6.1-6.3.1-10.8,0-9.2,0-21.9.1-36v-.2h-7.9v.4c.1,13.9.2,26.2.2,35.3.1,4.5-.1,8-.2,10.6v2.9A2.41,2.41,0,0,0,1053.31,679.64Z" transform="translate(-577.81 -239.54)"/><path class="cls-3" d="M1058.91,654.74a123.42,123.42,0,0,0,0-17.2A98.8,98.8,0,0,0,1058.91,654.74Z" transform="translate(-577.81 -239.54)"/><path class="cls-3" d="M1056,659.74a115,115,0,0,0,0-16.6A92,92,0,0,0,1056,659.74Z" transform="translate(-577.81 -239.54)"/><path class="cls-2" d="M1107.61,683.64a3.74,3.74,0,0,1,5.26.59,4.52,4.52,0,0,1,.34.51l7.2,10.8a10.1,10.1,0,0,1,.8,8.3c-1.5,3.7-5.2.6-5.2.6l-9.6-13.4a5.48,5.48,0,0,1-.2-5.9,16.09,16.09,0,0,1,1.2-1.4Z" transform="translate(-577.81 -239.54)"/><path class="cls-2" d="M1103.31,680.54c-.8-1.1,2.2-4.9,3.1-5.8l5.6-5.2a2.21,2.21,0,0,1,3.1-.3,2.63,2.63,0,0,1,.9,2.2,3.41,3.41,0,0,1-.9,2l-5.9,5.4c-.9.8-4.6,3.1-5.3,2Z" transform="translate(-577.81 -239.54)"/><path class="cls-3" d="M1103.31,680.54a3.25,3.25,0,0,0,.5.4h0a1.29,1.29,0,0,0,1,.4,5.74,5.74,0,0,0,1.4-.4,14.71,14.71,0,0,0,3.4-2.1l3.9-3.5,1.1-1a5.21,5.21,0,0,0,1.1-1.1,3.18,3.18,0,0,0,.1-3.5,3.58,3.58,0,0,0-1.8-1.2,2.22,2.22,0,0,0-1.9.6c-.9.9-1.8,1.7-2.5,2.4l-2.3,2.1a18.88,18.88,0,0,0-2,2,13.51,13.51,0,0,0-2.1,3.5,2,2,0,0,0-.2,1.1c0,.2.2.4.3.3-.1,0-.1-.2-.1-.4a1.68,1.68,0,0,1,.3-1,19.15,19.15,0,0,1,2.2-3.3,11.38,11.38,0,0,1,1.9-1.9l2.4-2.1c.8-.7,1.7-1.6,2.5-2.3a2,2,0,0,1,2.8.37.64.64,0,0,1,.1.13,2.41,2.41,0,0,1-.2,2.8,4.74,4.74,0,0,1-1,1l-1.1,1-3.9,3.6a9.72,9.72,0,0,1-3.3,2.1c-.9.5-1.8.6-2.1.2h0A.72.72,0,0,1,1103.31,680.54Z" transform="translate(-577.81 -239.54)"/><path class="cls-2" d="M1106,678.54c.8,1.1-2,5-2.9,6l-5.6,5.4a2.61,2.61,0,0,1-3.3.5,2.11,2.11,0,0,1-.9-2.1,4.08,4.08,0,0,1,1-2.1l5.9-5.7c.9-.9,4.5-3.3,5.3-2.3Z" transform="translate(-577.81 -239.54)"/><path class="cls-3" d="M1106,678.54a3.25,3.25,0,0,0-.5-.4h0a1.34,1.34,0,0,0-1-.3,3.32,3.32,0,0,0-1.4.5,15.65,15.65,0,0,0-3.4,2.3l-3.9,3.7-1.1,1a4.34,4.34,0,0,0-1.1,1.2,3,3,0,0,0-.1,3.5,2.43,2.43,0,0,0,1.9,1,3,3,0,0,0,2-.6c1-.9,1.8-1.7,2.6-2.5l2.3-2.3a19,19,0,0,0,1.9-2.1,13.8,13.8,0,0,0,2-3.6,2.6,2.6,0,0,0,.2-1.2.52.52,0,0,1-.4-.2c0-.1.1.1.1.3a3.12,3.12,0,0,1-.2,1,13.12,13.12,0,0,1-2.1,3.4,18.89,18.89,0,0,1-1.9,2l-2.4,2.2c-.8.8-1.7,1.6-2.5,2.5a2.27,2.27,0,0,1-1.5.5,2,2,0,0,1-1.4-.8,2.41,2.41,0,0,1,.2-2.8,10.44,10.44,0,0,1,1-1.1l1.1-1,3.8-3.8a17.83,17.83,0,0,1,3.2-2.4c.9-.5,1.8-.7,2.1-.4h0C1105.51,678.34,1105.81,678.44,1106,678.54Z" transform="translate(-577.81 -239.54)"/><path class="cls-2" d="M1106.41,688.34l-6.9-8.5,5.7-5.2,6.4,9.5C1111.31,687.74,1109.41,689,1106.41,688.34Z" transform="translate(-577.81 -239.54)"/><path class="cls-2" d="M1100.11,676.64l-4.6-6a1.88,1.88,0,0,1-.2-1.9,1.49,1.49,0,0,1,1.73-1.18l.27.08c.1.1.2.1.3.2l5.3,7.1" transform="translate(-577.81 -239.54)"/><path class="cls-3" d="M1102.91,674.84a7.78,7.78,0,0,0-1.4-2.1c-.9-1.4-2.2-3.1-3.7-5.1h0a1.68,1.68,0,0,0-1-.3,1.54,1.54,0,0,0-1,.4,2.74,2.74,0,0,0-.9,2.2,2.14,2.14,0,0,0,.5,1.1l.6.8,2.1,2.6a11.47,11.47,0,0,0,2.1,2.3,12,12,0,0,0-1.8-2.6l-2.1-2.8a6.68,6.68,0,0,1-.6-.8,1.12,1.12,0,0,1-.3-.8,1.5,1.5,0,0,1,.2-.9,5.1,5.1,0,0,1,.5-.8,1.05,1.05,0,0,1,1.3,0l-.1-.1c1.5,2,2.9,3.7,3.9,5A7.89,7.89,0,0,0,1102.91,674.84Z" transform="translate(-577.81 -239.54)"/><path class="cls-17" d="M1105,674.54a4.23,4.23,0,0,1-.6,5.3,2.69,2.69,0,0,1-3.64,1.11,2.85,2.85,0,0,1-.46-.31,3.78,3.78,0,0,1-.7-4.8,2.88,2.88,0,0,1,.9-1,3,3,0,0,1,4.21-.56Z" transform="translate(-577.81 -239.54)"/><path class="cls-3" d="M1104.51,674a3.72,3.72,0,0,1-.34,5.25l-.06.05a3.58,3.58,0,0,1-1.8,1.2,2.31,2.31,0,0,1-1.8-.2c-.9-.4-1.2-1.2-1.3-1.1s0,.9,1.2,1.5a3,3,0,0,0,2.1.3,3.58,3.58,0,0,0,2.1-1.4,4.93,4.93,0,0,0,1.1-4.4,2.15,2.15,0,0,0-.8-1.2Z" transform="translate(-577.81 -239.54)"/><path class="cls-3" d="M1111.61,683.54c-.1,0,0,.6,0,1.4-.1,2.1-1.6,3.7-3.3,3.6a2.41,2.41,0,0,1-.8-.2,5.12,5.12,0,0,1-1.3-.6c-.1,0,.3.6,1.2,1a3.26,3.26,0,0,0,3.4-.5,4.29,4.29,0,0,0,1.3-3.3A3.68,3.68,0,0,0,1111.61,683.54Z" transform="translate(-577.81 -239.54)"/><path class="cls-2" d="M1105,680.24a1.74,1.74,0,0,1,2.47-.06,1.86,1.86,0,0,1,.23.26.09.09,0,0,0,.1.1l4.2,5.7a3.24,3.24,0,0,1,.5,3.3,1.49,1.49,0,0,1-1.5.9,2.51,2.51,0,0,1-1.5-1l-4.4-6A2.56,2.56,0,0,1,1105,680.24Z" transform="translate(-577.81 -239.54)"/><path class="cls-3" d="M1105,680.24a1.41,1.41,0,0,0-.6.9,1.71,1.71,0,0,0,0,1.4,8,8,0,0,0,.8,1.6c.8,1.1,1.7,2.4,2.6,3.7l.8,1a3.1,3.1,0,0,0,.9,1.1,2.67,2.67,0,0,0,1.4.7,1.84,1.84,0,0,0,1.5-.6,3,3,0,0,0,.3-3,6,6,0,0,0-.8-1.3l-.8-1-2.7-3.7-.5-.7c-.2-.2-.4-.5-.7-.6a1.9,1.9,0,0,0-1.3-.2,6,6,0,0,0-.8.4c0,.3-.1.3-.1.3a4,4,0,0,1,1-.4,2,2,0,0,1,1.1.2,4.59,4.59,0,0,1,1.1,1.3l2.7,3.7.8,1.1a4.11,4.11,0,0,1,.7,1.1,2.85,2.85,0,0,1-.2,2.4,1.39,1.39,0,0,1-2,0c0-.05-.09-.1-.13-.16a8.55,8.55,0,0,1-.8-1l-.8-1-2.7-3.7a4.15,4.15,0,0,1-.9-1.4,2.44,2.44,0,0,1,0-1.2C1104.81,680.94,1104.91,680.64,1105,680.24Z" transform="translate(-577.81 -239.54)"/><path class="cls-3" d="M1105.51,687.34c.1-.2.2-.3.1-.3a.19.19,0,0,0-.1.3c-.2.1-.2.2-.2.2S1105.41,687.54,1105.51,687.34Z" transform="translate(-577.81 -239.54)"/><path class="cls-2" d="M1132,623.74c0-.8,1.2-13.6-8-14s-63.3-4.5-67.5-3.7-6.9,2.6-6.9,8.6v2.7a18.9,18.9,0,0,0,3,12.6h8.8s4-6.5,3.1-12.3l53.4,2.9a2.13,2.13,0,0,1,2.2,2.06v0c.2.8-1.3,86.5-1.3,86.5h0a9,9,0,0,0,12.72.27,3.57,3.57,0,0,0,.28-.27l.2-.2Z" transform="translate(-577.81 -239.54)"/><path class="cls-3" d="M1132,623.74v23.2c0,14.9,0,36.2-.1,61.9l.1-.2a9,9,0,0,1-9.1,2.5,8.56,8.56,0,0,1-2.4-1.1,10.63,10.63,0,0,1-1.1-.8l-.2-.2-.2-.1h0s.2.5.1.2v-.9c0-2.1.1-4.1.1-6.2.2-8.3.3-17,.5-26s.3-18.3.5-27.8c.1-4.8.2-9.6.2-14.5,0-2.5.1-4.9.1-7.3v-3.7a3.36,3.36,0,0,0-.8-1.8,2.22,2.22,0,0,0-1.7-.6h0l-8.8-.5-44.5-2.5h-.4l.1.4a15.58,15.58,0,0,1-.6,6.4,21.66,21.66,0,0,1-2.5,5.6l.2-.2h-8.8l.2.2a18.41,18.41,0,0,1-2.9-12.4h0a20.83,20.83,0,0,1,.4-6.1,6,6,0,0,1,3.4-4,22.51,22.51,0,0,1,2.4-.8,10.47,10.47,0,0,1,2.5-.2c1.7,0,3.3,0,5,.1,6.6.2,12.9.6,18.9,1l30.8,2c4.3.3,8.1.5,11.4.7a7.2,7.2,0,0,1,4.2,2,8.94,8.94,0,0,1,2.1,3.7,20.34,20.34,0,0,1,.9,6v2a13.45,13.45,0,0,0,.2-2.1,20,20,0,0,0-.8-6,11.23,11.23,0,0,0-2.1-3.7,6.31,6.31,0,0,0-4.3-2.1c-3.3-.3-7.1-.5-11.5-.8l-30.8-2.1c-5.9-.4-12.3-.8-18.9-1-1.7,0-3.3-.2-5-.2a11.36,11.36,0,0,0-2.6.2,18.18,18.18,0,0,0-2.5.8,7.56,7.56,0,0,0-2.3,1.7,6.73,6.73,0,0,0-1.4,2.8,22.63,22.63,0,0,0-.5,6.3h0a19.6,19.6,0,0,0,3,13l.1.2h9.1l.1-.2a24.09,24.09,0,0,0,2.6-5.9,15.21,15.21,0,0,0,.6-6.7l-.3.4,44.5,2.5,8.9.5h0a2.06,2.06,0,0,1,1.3.5,2.22,2.22,0,0,1,.6,1.4v3.7c0,2.5-.1,4.9-.1,7.3-.1,4.8-.2,9.7-.2,14.5-.2,9.5-.3,18.8-.4,27.8s-.2,17.6-.4,26.1c0,2.1-.1,4.1-.1,6.2v.8c-.1-.2.1.3.1.2h0l.2.2.2.2a9.2,9.2,0,0,0,3.6,2,9.61,9.61,0,0,0,9.7-2.6l.1-.1v-.2c0-25.8-.2-47.1-.2-61.9,0-7.4-.1-13.2-.1-17.2v-4.5A8.55,8.55,0,0,1,1132,623.74Z" transform="translate(-577.81 -239.54)"/><path class="cls-2" d="M1148.31,688a4.63,4.63,0,0,0-5.91-2.81,5.37,5.37,0,0,0-.69.31h0l-12.4,7.2a10.55,10.55,0,0,0-4.3,8.8c0,5.2,5.2,4.1,5.2,4.1l16.1-8.7a5.81,5.81,0,0,0,2.7-6.4c-.2-.8-.4-1.6-.7-2.5Z" transform="translate(-577.81 -239.54)"/><path class="cls-2" d="M1154.51,687.64c1.4-.7-.2-6.9-.8-8.6l-3.9-9.5a3.37,3.37,0,0,0-3.3-2.5,2.34,2.34,0,0,0-2,1.8,4.72,4.72,0,0,0,.2,2.9l4.2,10c.6,1.5,3.7,6.5,4.9,5.8l.7.1Z" transform="translate(-577.81 -239.54)"/><path class="cls-3" d="M1154.51,687.64a2,2,0,0,0-.8-.1h0c-.5.2-1.4-.6-2.2-1.7a25.32,25.32,0,0,1-2.7-4.5l-2.7-6.6a29,29,0,0,1-1.4-3.7,3.08,3.08,0,0,1,0-1.9,2.67,2.67,0,0,1,1-1.5,2.34,2.34,0,0,1,2-.1,2.93,2.93,0,0,1,1.5,1.4c.6,1.4,1.2,2.9,1.8,4.3s1.2,2.7,1.6,3.9a34.69,34.69,0,0,1,1.4,3.4,23.85,23.85,0,0,1,1,5.3,2.18,2.18,0,0,1-.2,1.4.68.68,0,0,1-.3.4,2.29,2.29,0,0,0,.5-.3,3.9,3.9,0,0,0,.3-1.5,19.34,19.34,0,0,0-.8-5.4,35.8,35.8,0,0,0-1.3-3.5c-.5-1.3-1.1-2.5-1.6-4s-1.1-2.8-1.8-4.4a4.11,4.11,0,0,0-1.8-1.7,2.73,2.73,0,0,0-3.59,1.41c0,.1-.08.19-.11.29a3.87,3.87,0,0,0,0,2.6c.5,1.4,1.1,2.5,1.5,3.8l2.7,6.5a23,23,0,0,0,2.8,4.6,4.25,4.25,0,0,0,1.4,1.3,1.07,1.07,0,0,0,1.2.2h0C1154,687.64,1154.31,687.64,1154.51,687.64Z" transform="translate(-577.81 -239.54)"/><path class="cls-2" d="M1152.41,683.54c-1.4.6-.1,6.9.5,8.6l3.6,9.8a3.47,3.47,0,0,0,3.3,2.7,2.12,2.12,0,0,0,2-1.7,4.14,4.14,0,0,0-.1-2.9l-3.7-10.3c-.5-1.6-3.3-6.7-4.7-6.1Z" transform="translate(-577.81 -239.54)"/><path class="cls-3" d="M1152.41,683.54a1.86,1.86,0,0,0,.8.2h0c.5-.2,1.4.6,2.1,1.7a19,19,0,0,1,2.4,4.7c.8,2.1,1.5,4.3,2.4,6.8.4,1.2,1,2.5,1.3,3.8a3.08,3.08,0,0,1,0,1.9,2.18,2.18,0,0,1-1.1,1.4,2.33,2.33,0,0,1-2,0,3.62,3.62,0,0,1-1.5-1.5c-.6-1.4-1.1-2.9-1.6-4.4l-1.4-4a36.1,36.1,0,0,1-1.2-3.5,18.65,18.65,0,0,1-.8-5.3,6.06,6.06,0,0,1,.2-1.4,1.27,1.27,0,0,1,.4-.4c0-.1-.2,0-.4.2a4.25,4.25,0,0,0-.4,1.4,21.14,21.14,0,0,0,.6,5.6,21.73,21.73,0,0,0,1.2,3.6l1.4,4.1c.5,1.4,1,2.9,1.7,4.5a3.67,3.67,0,0,0,1.8,1.7,2.55,2.55,0,0,0,2.4,0,3.86,3.86,0,0,0,1.4-4.1c-.5-1.4-.9-2.6-1.4-3.9-.9-2.4-1.8-4.7-2.5-6.7a20,20,0,0,0-2.7-4.7,5.77,5.77,0,0,0-1.3-1.4,1.09,1.09,0,0,0-1.2-.3Z" transform="translate(-577.81 -239.54)"/><path class="cls-2" d="M1147.61,694.14l11.4-4.8-3.9-9.7-11.3,6.4C1142.61,690.24,1143.91,692.94,1147.61,694.14Z" transform="translate(-577.81 -239.54)"/><path class="cls-2" d="M1159.81,685.44l7.9-3.5a2.09,2.09,0,0,0,1.1-2c-.1-1.5-.7-2.6-2.1-2.6l-9.2,4.2" transform="translate(-577.81 -239.54)"/><path class="cls-3" d="M1157.51,681.54a14.61,14.61,0,0,0,2.7-1c1.7-.7,4-1.7,6.5-2.9h-.1a1.49,1.49,0,0,1,1.5.9,5,5,0,0,1,.3,1.2,1.38,1.38,0,0,1-.2,1.1,1.81,1.81,0,0,1-.8.7l-1.1.5-3.6,1.7a20,20,0,0,0-3.2,1.7,18.33,18.33,0,0,0,3.3-1.2l3.6-1.5,1.1-.5a2,2,0,0,0,1-1,2.69,2.69,0,0,0,.3-1.5,3.76,3.76,0,0,0-.4-1.5,2,2,0,0,0-2.1-1.3h-.1c-2.6,1.2-4.9,2.3-6.5,3.1A20.32,20.32,0,0,1,1157.51,681.54Z" transform="translate(-577.81 -239.54)"/><path class="cls-2" d="M1155.31,679.84c-1.8.8-2.6,3.6-1.8,6.3s3,4.3,4.8,3.5,2.6-3.6,1.7-6.3S1157.11,679,1155.31,679.84Z" transform="translate(-577.81 -239.54)"/><path class="cls-3" d="M1156,679.54a.72.72,0,0,0-.5,0,3.26,3.26,0,0,0-1.4,1,5.57,5.57,0,0,0-1,2.5,6.3,6.3,0,0,0,.4,3.3,6,6,0,0,0,1.7,2.7,3.12,3.12,0,0,0,2.2.9,2.41,2.41,0,0,0,2-.9,4.27,4.27,0,0,1-1.9.4,4,4,0,0,1-3.3-3.3,6.27,6.27,0,0,1,.4-5.2A2.36,2.36,0,0,1,1156,679.54Z" transform="translate(-577.81 -239.54)"/><path class="cls-3" d="M1144.11,685.34a3.64,3.64,0,0,0-1.1,1.5,5.91,5.91,0,0,0,.2,4.7,4.34,4.34,0,0,0,3.3,2.5c1.1.2,1.7-.2,1.7-.3s-.6,0-1.6-.2c-2.3-.5-3.8-3.1-3.3-5.8.1-.2.1-.5.2-.7C1143.81,686,1144.21,685.44,1144.11,685.34Z" transform="translate(-577.81 -239.54)"/><path class="cls-2" d="M1152.71,686.14a2.27,2.27,0,0,0-2.78-1.61,2,2,0,0,0-.32.11l-7.1,3.6a3.28,3.28,0,0,0-1.9,3.3,2.13,2.13,0,0,0,1.3,2,2.57,2.57,0,0,0,2.1-.1l7.5-3.8A3.13,3.13,0,0,0,1152.71,686.14Z" transform="translate(-577.81 -239.54)"/><path class="cls-3" d="M1152.71,686.14a3.3,3.3,0,0,1,0,1.4,2.35,2.35,0,0,1-.7,1.4,7.16,7.16,0,0,1-1.6,1l-4.6,2.2-1.3.6a9.08,9.08,0,0,1-1.4.6,1.86,1.86,0,0,1-2.2-1.4,3.28,3.28,0,0,1,.8-2.9,8.64,8.64,0,0,1,1.2-.8l1.4-.6,4.6-2.4a2.79,2.79,0,0,1,1.8-.6,2.06,2.06,0,0,1,1.3.5,3.47,3.47,0,0,1,.7,1c.2-.1.1-.2,0-.4a4.86,4.86,0,0,0-.6-.9,2,2,0,0,0-1.4-.6,1.82,1.82,0,0,0-1,.2l-.9.5-4.6,2.2-1.3.6a4.15,4.15,0,0,0-1.4.9,3.87,3.87,0,0,0-1.1,3.7,2.47,2.47,0,0,0,2.9,1.8,6,6,0,0,0,1.4-.6l1.3-.7,4.6-2.4.9-.4a2.81,2.81,0,0,0,1.4-2.2,2.06,2.06,0,0,0-.1-1.1Z" transform="translate(-577.81 -239.54)"/><path class="cls-3" d="M1148.91,693.64Z" transform="translate(-577.81 -239.54)"/><path class="cls-3" d="M1133,691.14a1.4,1.4,0,0,0-.9-.1,7.21,7.21,0,0,0-2.5.6,7.68,7.68,0,0,0-3.1,2.6,10,10,0,0,0-2,5,8.44,8.44,0,0,0,.9,5.4,3.09,3.09,0,0,0,1.7,1.5,3.79,3.79,0,0,0,1.8.2,7,7,0,0,0,2.4-1,4.29,4.29,0,0,0,.8-.6l-.9.3a6.71,6.71,0,0,1-2.4.7,2.92,2.92,0,0,1-3-1.7,7.71,7.71,0,0,1-.8-4.9,9.21,9.21,0,0,1,4.6-7.2A32.9,32.9,0,0,1,1133,691.14Z" transform="translate(-577.81 -239.54)"/><path class="cls-18" d="M1204.51,545.44l-57.4,36.5-63-42.9,57.4-36.5Z" transform="translate(-577.81 -239.54)"/><path class="cls-19" d="M1172.11,566l-69.3-47.2,4.6-2.9,69.3,47.2Z" transform="translate(-577.81 -239.54)"/><path class="cls-20" d="M1088.41,486.44l61.9-39.4,69.3,47.2-61.9,39.4Z" transform="translate(-577.81 -239.54)"/><g class="cls-21"><path class="cls-22" d="M1088.41,486.14l61.9-38.8,69.3,47.2-61.9,38.8Z" transform="translate(-577.81 -239.54)"/></g><path class="cls-20" d="M1157.11,586.14l-69.3-47.2.5-52.5,69.3,47.2Z" transform="translate(-577.81 -239.54)"/><g class="cls-23"><path class="cls-24" d="M1157.11,586.14l-69.3-47.3.5-52.4,69.4,47.4Z" transform="translate(-577.81 -239.54)"/></g><path class="cls-20" d="M1157.11,586.14l61.9-39.4.5-52.5-61.9,39.4Z" transform="translate(-577.81 -239.54)"/><g class="cls-25"><path class="cls-26" d="M1157.11,585.84l61.9-39,.5-52.4-61.9,39Z" transform="translate(-577.81 -239.54)"/></g><path class="cls-20" d="M1126.71,488l25.4-18,28.5,21.5-25.4,18Z" transform="translate(-577.81 -239.54)"/><path class="cls-22" d="M1126.81,487.94l25.4-17.9,28.4,21.5-25.4,17.9Z" transform="translate(-577.81 -239.54)"/><path class="cls-20" d="M1126.71,488l25.4-18,28.5,21.5-25.4,18Z" transform="translate(-577.81 -239.54)"/><path class="cls-22" d="M1126.81,487.94l25.4-17.9,28.4,21.5-25.4,17.9Z" transform="translate(-577.81 -239.54)"/><path class="cls-18" d="M1204.51,545.44l-57.4,36.5-63-42.9,57.4-36.5Z" transform="translate(-577.81 -239.54)"/><path class="cls-20" d="M1088.41,486.44l61.9-39.4,69.3,47.2-61.9,39.4Z" transform="translate(-577.81 -239.54)"/><g class="cls-21"><polygon class="cls-27" points="510.6 246.6 572.5 207.8 641.8 255 579.9 293.9 510.6 246.6"/><polygon class="cls-28" points="510.6 246.6 572.5 207.8 641.8 255 579.9 293.9 510.6 246.6"/></g><path class="cls-20" d="M1157.11,586.14l-69.3-47.2.5-52.5,69.3,47.2Z" transform="translate(-577.81 -239.54)"/><g class="cls-23"><path class="cls-24" d="M1157.11,586.14l-69.3-47.3.5-52.4,69.4,47.4Z" transform="translate(-577.81 -239.54)"/></g><path class="cls-20" d="M1157.11,586.14l61.9-39.4.5-52.5-61.9,39.4Z" transform="translate(-577.81 -239.54)"/><g class="cls-29"><path class="cls-26" d="M1157.11,585.84l61.9-39,.5-52.4-61.9,39Z" transform="translate(-577.81 -239.54)"/></g><path class="cls-20" d="M1126.71,488l25.4-18,28.5,21.5-25.4,18Z" transform="translate(-577.81 -239.54)"/><path class="cls-22" d="M1126.81,487.94l25.4-17.9,28.4,21.5-25.4,17.9Z" transform="translate(-577.81 -239.54)"/><path class="cls-20" d="M1126.71,488l25.4-18,28.5,21.5-25.4,18Z" transform="translate(-577.81 -239.54)"/><path class="cls-30" d="M1098,500.34l55,37.4a4.15,4.15,0,0,1,1.8,3.3l-.9,29.9a4.13,4.13,0,0,1-4.3,3.8,3.63,3.63,0,0,1-2.2-.7l-54.7-35.9a4,4,0,0,1-1.8-3.3l.7-31.4a4.13,4.13,0,0,1,4.3-3.8A3.77,3.77,0,0,1,1098,500.34Z" transform="translate(-577.81 -239.54)"/><image class="cls-31" width="69" height="71" transform="translate(522 89)" xlink:href="../../Desktop/New%20folder%20(2)/F5F85C38.png"/><text class="cls-32" transform="translate(530.32 124.2)">11!</text><image class="cls-31" width="64" height="71" transform="translate(701 173)" xlink:href="../../Desktop/New%20folder%20(2)/F5F85C3B.png"/><image class="cls-31" width="62" height="71" transform="translate(0 347)" xlink:href="../../Desktop/New%20folder%20(2)/8CE55217.png"/><text class="cls-32" transform="translate(8.11 381.66)">5!</text><image class="cls-31" width="67" height="71" transform="translate(105 119)" xlink:href="../../Desktop/New%20folder%20(2)/8CE55215.png"/><text class="cls-32" transform="translate(113.89 154.11)">4!</text><image class="cls-31" width="78" height="71" transform="translate(111)" xlink:href="../../Desktop/New%20folder%20(2)/8CE55213.png"/><text class="cls-32" transform="translate(119.95 35)">17!</text><text class="cls-32" transform="translate(709.44 207.89)">7!</text></svg>