<svg id="Layer_1" data-name="Layer 1" xmlns="http://www.w3.org/2000/svg" viewBox="0 0 465.1 447.1"><defs><style>.cls-1{fill-opacity:0.15;opacity:0.2;}.cls-1,.cls-12,.cls-2,.cls-3,.cls-5,.cls-7,.cls-9{stroke:#000;}.cls-1,.cls-2,.cls-3,.cls-5,.cls-7,.cls-9{stroke-opacity:0.15;}.cls-1,.cls-12,.cls-5,.cls-7,.cls-9{isolation:isolate;}.cls-2{fill:#455a64;}.cls-3{fill:#ffebeb;}.cls-4,.cls-5{opacity:0.7;}.cls-11,.cls-5,.cls-7,.cls-9{fill:#fff;}.cls-6,.cls-7{opacity:0.6;}.cls-8,.cls-9{opacity:0.4;}.cls-10{opacity:0.25;}.cls-12{fill:none;opacity:0.15;}.cls-13{opacity:0.88;}.cls-14{fill:#37474f;}</style></defs><title>Box</title><path class="cls-1" d="M543.38,315.62,347.17,432.55,131.81,295.11,328,178.19Z" transform="translate(-130.86 0.2)"/><path class="cls-2" d="M432.63,381.48l-236.9-151.2,15.73-9.3L448.35,372.19Z" transform="translate(-130.86 0.2)"/><path class="cls-3" d="M146.51,126.61,358.11.39,595,151.6,383.4,277.82Z" transform="translate(-130.86 0.2)"/><g class="cls-4"><path class="cls-5" d="M146.51,125.65,358.11,1.35,595,152.56,383.4,276.85Z" transform="translate(-130.86 0.2)"/></g><path class="cls-3" d="M381.35,446,144.46,294.79l1.7-168.18,236.9,151.21Z" transform="translate(-130.86 0.2)"/><g class="cls-6"><path class="cls-7" d="M381.35,446,144.46,294.47l1.7-167.86L383.4,278.46Z" transform="translate(-130.86 0.2)"/></g><path class="cls-3" d="M381.35,446,593,319.78l1.71-168.18L383.06,277.82Z" transform="translate(-130.86 0.2)"/><g class="cls-8"><path class="cls-9" d="M381.35,445,593,320.1l1.71-167.86L383.06,277.17Z" transform="translate(-130.86 0.2)"/></g><path class="cls-3" d="M277.43,131.61l86.83-57.67,97.42,68.88-86.82,57.66Z" transform="translate(-130.86 0.2)"/><path class="cls-5" d="M277.77,131.41,364.6,74.07,461.68,143l-86.82,57.34Z" transform="translate(-130.86 0.2)"/><path class="cls-3" d="M277.43,131.61l86.83-57.67,97.42,68.88-86.82,57.66Z" transform="translate(-130.86 0.2)"/><path class="cls-5" d="M277.77,131.41,364.6,74.07,461.68,143l-86.82,57.34Z" transform="translate(-130.86 0.2)"/><path class="cls-10" d="M543.38,315.62,347.17,432.55,131.81,295.11,328,178.19Z" transform="translate(-130.86 0.2)"/><path class="cls-3" d="M146.51,126.61,358.11.39,595,151.6,383.4,277.82Z" transform="translate(-130.86 0.2)"/><g class="cls-4"><polygon class="cls-11" points="15.65 125.84 227.25 1.55 464.14 152.75 252.55 277.37 15.65 125.84"/><polygon class="cls-12" points="15.65 125.84 227.25 1.55 464.14 152.75 252.55 277.37 15.65 125.84"/></g><path class="cls-3" d="M381.35,446,144.46,294.79l1.7-168.18,236.9,151.21Z" transform="translate(-130.86 0.2)"/><g class="cls-6"><path class="cls-7" d="M381.35,446,144.46,294.47l1.7-167.86L383.4,278.46Z" transform="translate(-130.86 0.2)"/></g><path class="cls-3" d="M381.35,446,593,319.78l1.71-168.18L383.06,277.82Z" transform="translate(-130.86 0.2)"/><g class="cls-13"><path class="cls-9" d="M381.35,445,593,320.1l1.71-167.86L383.06,277.17Z" transform="translate(-130.86 0.2)"/></g><path class="cls-3" d="M277.43,131.61l86.83-57.67,97.42,68.88-86.82,57.66Z" transform="translate(-130.86 0.2)"/><path class="cls-5" d="M277.77,131.41,364.6,74.07,461.68,143l-86.82,57.34Z" transform="translate(-130.86 0.2)"/><path class="cls-3" d="M277.43,131.61l86.83-57.67,97.42,68.88-86.82,57.66Z" transform="translate(-130.86 0.2)"/><path class="cls-14" d="M179.29,171.14,367.3,291a13.1,13.1,0,0,1,6.15,10.57l-3.07,95.79c-.6,7.1-7.1,12.49-14.7,12.17a13,13,0,0,1-7.52-2.24l-187-115A12.64,12.64,0,0,1,155,281.66l2.39-100.59c.6-7.11,7.1-12.49,14.7-12.17A13.35,13.35,0,0,1,179.29,171.14Z" transform="translate(-130.86 0.2)"/>
viewBox="0 0 200 200"
</svg>
